<svg width="17" height="17" viewBox="0 0 17 17" fill="none" xmlns="http://www.w3.org/2000/svg">
<path d="M9.91602 7.79167H10.6243C11.4068 7.79167 12.041 8.42593 12.041 9.20833V11.3333C12.041 11.9201 12.5167 12.3958 13.1035 12.3958C13.6903 12.3958 14.166 11.9201 14.166 11.3333V6.375L12.041 4.25" stroke="black" stroke-opacity="0.7" stroke-width="1.75" stroke-linecap="round" stroke-linejoin="round"/>
<path d="M2.83398 14.1667V4.25004C2.83398 3.46764 3.46825 2.83337 4.25065 2.83337H8.50065C9.28305 2.83337 9.91732 3.46764 9.91732 4.25004V14.1667" stroke="black" stroke-opacity="0.7" stroke-width="1.75" stroke-linecap="round" stroke-linejoin="round"/>
<path d="M2.125 14.1667H10.625" stroke="black" stroke-opacity="0.7" stroke-width="1.75" stroke-linecap="round" stroke-linejoin="round"/>
<path d="M12.75 4.95837V5.66671C12.75 6.05791 13.0671 6.37504 13.4583 6.37504H14.1667" stroke="black" stroke-opacity="0.7" stroke-width="1.75" stroke-linecap="round" stroke-linejoin="round"/>
<path d="M2.83398 7.79167H9.91732" stroke="black" stroke-opacity="0.7" stroke-width="1.75" stroke-linecap="round" stroke-linejoin="round"/>
</svg>
