<svg width="17" height="17" viewBox="0 0 17 17" fill="none" xmlns="http://www.w3.org/2000/svg">
<path d="M15.5827 14.875V13.4583C15.5827 12.1381 14.6797 11.0288 13.4577 10.7143M10.9785 2.33095C12.0169 2.75127 12.7493 3.76926 12.7493 4.95833C12.7493 6.1474 12.0169 7.1654 10.9785 7.58571M12.041 14.875C12.041 13.5548 12.041 12.8947 11.8253 12.3741C11.5378 11.6798 10.9862 11.1282 10.292 10.8407C9.77127 10.625 9.11118 10.625 7.79102 10.625H5.66602C4.34585 10.625 3.68576 10.625 3.16508 10.8407C2.47083 11.1282 1.91926 11.6798 1.63169 12.3741C1.41602 12.8947 1.41602 13.5548 1.41602 14.875M9.56185 4.95833C9.56185 6.52314 8.29332 7.79167 6.72852 7.79167C5.16371 7.79167 3.89518 6.52314 3.89518 4.95833C3.89518 3.39353 5.16371 2.125 6.72852 2.125C8.29332 2.125 9.56185 3.39353 9.56185 4.95833Z" stroke="black" stroke-opacity="0.7" stroke-width="1.5" stroke-linecap="round" stroke-linejoin="round"/>
</svg>
