<svg width="17" height="17" viewBox="0 0 17 17" fill="none" xmlns="http://www.w3.org/2000/svg">
<path d="M8.49935 1.41663V3.18746M8.49935 1.41663C4.58733 1.41663 1.41602 4.58794 1.41602 8.49996M8.49935 1.41663C12.4114 1.41663 15.5827 4.58794 15.5827 8.49996M8.49935 13.8125V15.5833M8.49935 15.5833C12.4114 15.5833 15.5827 12.412 15.5827 8.49996M8.49935 15.5833C4.58733 15.5833 1.41602 12.412 1.41602 8.49996M3.18685 8.49996H1.41602M15.5827 8.49996H13.8118M13.5132 13.5138L12.2568 12.2574M3.4855 13.5138L4.74316 12.2562M3.4855 3.54163L4.71549 4.77161M13.5132 3.54163L9.56178 7.43746M9.91602 8.49996C9.91602 9.28236 9.28175 9.91663 8.49935 9.91663C7.71695 9.91663 7.08268 9.28236 7.08268 8.49996C7.08268 7.71756 7.71695 7.08329 8.49935 7.08329C9.28175 7.08329 9.91602 7.71756 9.91602 8.49996Z" stroke="black" stroke-opacity="0.7" stroke-width="1.5" stroke-linecap="round" stroke-linejoin="round"/>
</svg>
