<svg width="34" height="34" viewBox="0 0 34 34" fill="none" xmlns="http://www.w3.org/2000/svg">
<path d="M23.8961 11.5723C23.8968 11.1748 23.7396 10.7933 23.4592 10.5116C23.1788 10.2298 22.798 10.0709 22.4005 10.0698L14.3996 10.049C14.0017 10.0481 13.6196 10.2053 13.3376 10.486C13.0555 10.7668 12.8966 11.1481 12.8956 11.546C12.8947 11.944 13.0519 12.326 13.3327 12.608C13.6134 12.8901 13.9947 13.0491 14.3926 13.05L18.7717 13.0609L10.5963 21.1984C10.3143 21.479 10.1554 21.8602 10.1545 22.258C10.1536 22.6558 10.3107 23.0377 10.5914 23.3197C10.872 23.6016 11.2532 23.7605 11.651 23.7615C12.0488 23.7624 12.4307 23.6053 12.7127 23.3246L20.8881 15.1871L20.8779 19.5655C20.8775 19.7626 20.9158 19.9578 20.9908 20.14C21.0658 20.3222 21.1759 20.4879 21.3149 20.6275C21.454 20.7672 21.6191 20.8781 21.801 20.9539C21.9828 21.0298 22.1779 21.069 22.3749 21.0695C22.572 21.0699 22.7672 21.0316 22.9494 20.9566C23.1316 20.8816 23.2973 20.7715 23.4369 20.6325C23.5766 20.4935 23.6875 20.3283 23.7633 20.1464C23.8392 19.9646 23.8784 19.7695 23.8789 19.5725L23.8961 11.5723Z" fill="#0955AC"/>
</svg>
