<svg width="20" height="20" viewBox="0 0 20 20" fill="none" xmlns="http://www.w3.org/2000/svg">
<path d="M3.125 9.79167C3.125 9.34964 3.30059 8.92572 3.61316 8.61316C3.92572 8.3006 4.34964 8.125 4.79167 8.125H15.2083C15.6504 8.125 16.0743 8.3006 16.3868 8.61316C16.6994 8.92572 16.875 9.34964 16.875 9.79167V14.7917H3.125V9.79167Z" stroke="black" stroke-width="2" stroke-linecap="round" stroke-linejoin="round"/>
<path d="M5.83333 11.6667C6.29357 11.6667 6.66667 11.2936 6.66667 10.8333C6.66667 10.3731 6.29357 10 5.83333 10C5.3731 10 5 10.3731 5 10.8333C5 11.2936 5.3731 11.6667 5.83333 11.6667Z" fill="black"/>
<path d="M14.1668 11.6667C14.6271 11.6667 15.0002 11.2936 15.0002 10.8333C15.0002 10.3731 14.6271 10 14.1668 10C13.7066 10 13.3335 10.3731 13.3335 10.8333C13.3335 11.2936 13.7066 11.6667 14.1668 11.6667Z" fill="black"/>
<path d="M8.33333 12.2917H11.6667M5.22583 4.63925C5.3427 4.3176 5.55575 4.03972 5.83604 3.84337C6.11634 3.64702 6.45028 3.54171 6.7925 3.54175H13.2075C13.5497 3.54171 13.8837 3.64702 14.164 3.84337C14.4442 4.03972 14.6573 4.3176 14.7742 4.63925L16.0417 8.12508H3.95833L5.22583 4.63925ZM3.125 14.7917H5.99V16.2084C5.99 16.4957 5.87586 16.7713 5.6727 16.9744C5.46953 17.1776 5.19398 17.2917 4.90667 17.2917H4.20833C3.92102 17.2917 3.64547 17.1776 3.4423 16.9744C3.23914 16.7713 3.125 16.4957 3.125 16.2084V14.7917ZM14.0108 14.7917H16.875V16.2084C16.875 16.4957 16.7609 16.7713 16.5577 16.9744C16.3545 17.1776 16.079 17.2917 15.7917 17.2917H15.0942C14.8068 17.2917 14.5313 17.1776 14.3281 16.9744C14.125 16.7713 14.0108 16.4957 14.0108 16.2084V14.7917Z" stroke="black" stroke-width="2" stroke-linecap="round" stroke-linejoin="round"/>
</svg>
