<svg width="12" height="11" viewBox="0 0 12 11" fill="none" xmlns="http://www.w3.org/2000/svg">
<path d="M8.59277 0.5H8.59473C8.87975 0.499272 9.16331 0.542458 9.43555 0.62793L9.7041 0.727539C9.96807 0.841058 10.2142 0.994909 10.4346 1.18359L10.6455 1.38281C11.1211 1.88006 11.4174 2.53167 11.4854 3.22656L11.5 3.52637C11.5022 4.33184 11.1982 5.10335 10.6582 5.6748L6.00684 10.4961C6.00438 10.4986 6.00279 10.4997 6.00195 10.5L5.99609 10.4961L1.34277 5.67188C0.804394 5.10263 0.500105 4.33498 0.5 3.53223L0.514648 3.23242C0.571034 2.63758 0.793909 2.07412 1.1543 1.61133L1.3457 1.38867C1.89108 0.827008 2.62597 0.514761 3.38867 0.514648C4.05754 0.514648 4.70556 0.754548 5.22266 1.19238L5.43652 1.39258L5.62891 1.59082L5.99414 1.96973L6.35352 1.58496L6.54199 1.38281C6.74408 1.17172 6.97471 0.994023 7.22559 0.854492L7.4834 0.727539C7.74736 0.614058 8.02571 0.542042 8.30859 0.513672L8.59277 0.5Z" fill="#0955AC" stroke="white"/>
</svg>
