<svg width="17" height="17" viewBox="0 0 17 17" fill="none" xmlns="http://www.w3.org/2000/svg">
<path d="M12.75 11.39C12.2117 11.39 11.73 11.6025 11.3617 11.9354L6.31125 8.99579C6.34667 8.83288 6.375 8.66996 6.375 8.49996C6.375 8.32996 6.34667 8.16704 6.31125 8.00413L11.305 5.09288C11.6875 5.44704 12.1904 5.66663 12.75 5.66663C13.9258 5.66663 14.875 4.71746 14.875 3.54163C14.875 2.36579 13.9258 1.41663 12.75 1.41663C11.5742 1.41663 10.625 2.36579 10.625 3.54163C10.625 3.71163 10.6533 3.87454 10.6887 4.03746L5.695 6.94871C5.3125 6.59454 4.80958 6.37496 4.25 6.37496C3.07417 6.37496 2.125 7.32413 2.125 8.49996C2.125 9.67579 3.07417 10.625 4.25 10.625C4.80958 10.625 5.3125 10.4054 5.695 10.0512L10.7383 12.9979C10.7029 13.1466 10.6817 13.3025 10.6817 13.4583C10.6817 14.5987 11.6096 15.5266 12.75 15.5266C13.8904 15.5266 14.8183 14.5987 14.8183 13.4583C14.8183 12.3179 13.8904 11.39 12.75 11.39Z" fill="black"/>
</svg>
