<svg width="108" height="20" viewBox="0 0 108 20" fill="none" xmlns="http://www.w3.org/2000/svg">
<g clip-path="url(#clip0_2142_28806)">
<path fill-rule="evenodd" clip-rule="evenodd" d="M9.16713 2.65838C9.22469 2.47584 9.33895 2.31641 9.4933 2.20324C9.64766 2.09007 9.83407 2.02905 10.0255 2.02905C10.2169 2.02905 10.4033 2.09007 10.5576 2.20324C10.712 2.31641 10.8262 2.47584 10.8838 2.65838L12.4338 7.42505H17.4338C17.632 7.41755 17.8273 7.47516 17.9897 7.58908C18.1521 7.70299 18.2728 7.86695 18.3332 8.05589C18.3937 8.24484 18.3906 8.44838 18.3245 8.63542C18.2584 8.82247 18.1329 8.98273 17.9671 9.09171L13.9088 12.0334L15.4588 16.8084C15.5201 16.9903 15.5216 17.187 15.4632 17.3698C15.4048 17.5526 15.2894 17.712 15.134 17.8246C14.9786 17.9372 14.7912 17.9972 14.5993 17.9958C14.4073 17.9944 14.2209 17.9316 14.0671 17.8167L10.0005 14.8417L5.94213 17.7917C5.78839 17.9066 5.60193 17.9694 5.41 17.9708C5.21807 17.9722 5.0307 17.9122 4.87527 17.7996C4.71984 17.687 4.60449 17.5276 4.54605 17.3448C4.48762 17.162 4.48916 16.9653 4.55046 16.7834L6.10046 12.0084L2.04213 9.06671C1.87637 8.95773 1.75084 8.79747 1.68473 8.61042C1.61862 8.42338 1.61556 8.21984 1.67603 8.03089C1.73649 7.84195 1.85715 7.67799 2.01956 7.56408C2.18198 7.45016 2.37722 7.39255 2.57546 7.40005H7.57546L9.16713 2.65838Z" fill="#F0BB0D" stroke="#F0BB0D" stroke-linecap="round" stroke-linejoin="round"/>
<path fill-rule="evenodd" clip-rule="evenodd" d="M31.1671 2.65838C31.2247 2.47584 31.3389 2.31641 31.4933 2.20324C31.6477 2.09007 31.8341 2.02905 32.0255 2.02905C32.2169 2.02905 32.4033 2.09007 32.5576 2.20324C32.712 2.31641 32.8262 2.47584 32.8838 2.65838L34.4338 7.42505H39.4338C39.632 7.41755 39.8273 7.47516 39.9897 7.58908C40.1521 7.70299 40.2728 7.86695 40.3332 8.05589C40.3937 8.24484 40.3906 8.44838 40.3245 8.63542C40.2584 8.82247 40.1329 8.98273 39.9671 9.09171L35.9088 12.0334L37.4588 16.8084C37.5201 16.9903 37.5216 17.187 37.4632 17.3698C37.4048 17.5526 37.2894 17.712 37.134 17.8246C36.9786 17.9372 36.7912 17.9972 36.5993 17.9958C36.4073 17.9944 36.2209 17.9316 36.0671 17.8167L32.0005 14.8417L27.9421 17.7917C27.7884 17.9066 27.6019 17.9694 27.41 17.9708C27.2181 17.9722 27.0307 17.9122 26.8753 17.7996C26.7198 17.687 26.6045 17.5276 26.5461 17.3448C26.4876 17.162 26.4892 16.9653 26.5505 16.7834L28.1005 12.0084L24.0421 9.06671C23.8764 8.95773 23.7508 8.79747 23.6847 8.61042C23.6186 8.42338 23.6156 8.21984 23.676 8.03089C23.7365 7.84195 23.8571 7.67799 24.0196 7.56408C24.182 7.45016 24.3772 7.39255 24.5755 7.40005H29.5755L31.1671 2.65838Z" fill="#F0BB0D" stroke="#F0BB0D" stroke-linecap="round" stroke-linejoin="round"/>
<path fill-rule="evenodd" clip-rule="evenodd" d="M53.1671 2.65838C53.2247 2.47584 53.3389 2.31641 53.4933 2.20324C53.6477 2.09007 53.8341 2.02905 54.0255 2.02905C54.2169 2.02905 54.4033 2.09007 54.5576 2.20324C54.712 2.31641 54.8262 2.47584 54.8838 2.65838L56.4338 7.42505H61.4338C61.632 7.41755 61.8273 7.47516 61.9897 7.58908C62.1521 7.70299 62.2728 7.86695 62.3332 8.05589C62.3937 8.24484 62.3906 8.44838 62.3245 8.63542C62.2584 8.82247 62.1329 8.98273 61.9671 9.09171L57.9088 12.0334L59.4588 16.8084C59.5201 16.9903 59.5216 17.187 59.4632 17.3698C59.4048 17.5526 59.2894 17.712 59.134 17.8246C58.9786 17.9372 58.7912 17.9972 58.5993 17.9958C58.4073 17.9944 58.2209 17.9316 58.0671 17.8167L54.0005 14.8417L49.9421 17.7917C49.7884 17.9066 49.6019 17.9694 49.41 17.9708C49.2181 17.9722 49.0307 17.9122 48.8753 17.7996C48.7198 17.687 48.6045 17.5276 48.5461 17.3448C48.4876 17.162 48.4892 16.9653 48.5505 16.7834L50.1005 12.0084L46.0421 9.06671C45.8764 8.95773 45.7508 8.79747 45.6847 8.61042C45.6186 8.42338 45.6156 8.21984 45.676 8.03089C45.7365 7.84195 45.8571 7.67799 46.0196 7.56408C46.182 7.45016 46.3772 7.39255 46.5755 7.40005H51.5755L53.1671 2.65838Z" fill="#F0BB0D" stroke="#F0BB0D" stroke-linecap="round" stroke-linejoin="round"/>
<path fill-rule="evenodd" clip-rule="evenodd" d="M75.1671 2.65838C75.2247 2.47584 75.3389 2.31641 75.4933 2.20324C75.6477 2.09007 75.8341 2.02905 76.0255 2.02905C76.2169 2.02905 76.4033 2.09007 76.5576 2.20324C76.712 2.31641 76.8262 2.47584 76.8838 2.65838L78.4338 7.42505H83.4338C83.632 7.41755 83.8273 7.47516 83.9897 7.58908C84.1521 7.70299 84.2728 7.86695 84.3332 8.05589C84.3937 8.24484 84.3906 8.44838 84.3245 8.63542C84.2584 8.82247 84.1329 8.98273 83.9671 9.09171L79.9088 12.0334L81.4588 16.8084C81.5201 16.9903 81.5216 17.187 81.4632 17.3698C81.4048 17.5526 81.2894 17.712 81.134 17.8246C80.9786 17.9372 80.7912 17.9972 80.5993 17.9958C80.4073 17.9944 80.2209 17.9316 80.0671 17.8167L76.0005 14.8417L71.9421 17.7917C71.7884 17.9066 71.6019 17.9694 71.41 17.9708C71.2181 17.9722 71.0307 17.9122 70.8753 17.7996C70.7198 17.687 70.6045 17.5276 70.5461 17.3448C70.4876 17.162 70.4892 16.9653 70.5505 16.7834L72.1005 12.0084L68.0421 9.06671C67.8764 8.95773 67.7508 8.79747 67.6847 8.61042C67.6186 8.42338 67.6156 8.21984 67.676 8.03089C67.7365 7.84195 67.8571 7.67799 68.0196 7.56408C68.182 7.45016 68.3772 7.39255 68.5755 7.40005H73.5755L75.1671 2.65838Z" fill="#F0BB0D" stroke="#F0BB0D" stroke-linecap="round" stroke-linejoin="round"/>
<path fill-rule="evenodd" clip-rule="evenodd" d="M97.1671 2.65838C97.2247 2.47584 97.3389 2.31641 97.4933 2.20324C97.6477 2.09007 97.8341 2.02905 98.0255 2.02905C98.2169 2.02905 98.4033 2.09007 98.5576 2.20324C98.712 2.31641 98.8262 2.47584 98.8838 2.65838L100.434 7.42505H105.434C105.632 7.41755 105.827 7.47516 105.99 7.58908C106.152 7.70299 106.273 7.86695 106.333 8.05589C106.394 8.24484 106.391 8.44838 106.325 8.63542C106.258 8.82247 106.133 8.98273 105.967 9.09171L101.909 12.0334L103.459 16.8084C103.52 16.9903 103.522 17.187 103.463 17.3698C103.405 17.5526 103.289 17.712 103.134 17.8246C102.979 17.9372 102.791 17.9972 102.599 17.9958C102.407 17.9944 102.221 17.9316 102.067 17.8167L98.0005 14.8417L93.9421 17.7917C93.7884 17.9066 93.6019 17.9694 93.41 17.9708C93.2181 17.9722 93.0307 17.9122 92.8753 17.7996C92.7198 17.687 92.6045 17.5276 92.5461 17.3448C92.4876 17.162 92.4892 16.9653 92.5505 16.7834L94.1005 12.0084L90.0421 9.06671C89.8764 8.95773 89.7508 8.79747 89.6847 8.61042C89.6186 8.42338 89.6156 8.21984 89.676 8.03089C89.7365 7.84195 89.8571 7.67799 90.0196 7.56408C90.182 7.45016 90.3772 7.39255 90.5755 7.40005H95.5755L97.1671 2.65838Z" stroke="#151515" stroke-width="1.5" stroke-linecap="round" stroke-linejoin="round"/>
</g>
<defs>
<clipPath id="clip0_2142_28806">
<rect width="108" height="20" fill="white"/>
</clipPath>
</defs>
</svg>
