<svg width="12" height="12" viewBox="0 0 12 12" fill="none" xmlns="http://www.w3.org/2000/svg">
<path d="M6.00016 9.4183L2.97516 11.245C2.88627 11.2889 2.80377 11.3066 2.72766 11.2983C2.65211 11.2894 2.5785 11.2633 2.50683 11.22C2.43461 11.1755 2.38016 11.1127 2.3435 11.0316C2.30683 10.9505 2.3035 10.8619 2.3335 10.7658L3.1385 7.34081L0.475996 5.03247C0.400996 4.97136 0.351552 4.8983 0.327663 4.8133C0.303774 4.7283 0.309052 4.64692 0.343496 4.56914C0.377941 4.49136 0.423774 4.42747 0.480996 4.37747C0.538774 4.32914 0.616552 4.29636 0.71433 4.27914L4.22766 3.97247L5.59766 0.729138C5.63544 0.637471 5.68989 0.57136 5.761 0.530804C5.83211 0.490248 5.91183 0.469971 6.00016 0.469971C6.0885 0.469971 6.1685 0.490248 6.24016 0.530804C6.31183 0.57136 6.366 0.637471 6.40266 0.729138L7.77266 3.97247L11.2852 4.27914C11.3835 4.2958 11.4616 4.32886 11.5193 4.3783C11.5771 4.42719 11.6232 4.4908 11.6577 4.56914C11.6916 4.64692 11.6966 4.7283 11.6727 4.8133C11.6488 4.8983 11.5993 4.97136 11.5243 5.03247L8.86183 7.34081L9.66683 10.7658C9.69794 10.8608 9.69489 10.9491 9.65766 11.0308C9.62044 11.1125 9.56572 11.1752 9.4935 11.2191C9.42239 11.2636 9.34877 11.29 9.27266 11.2983C9.19711 11.3066 9.11489 11.2889 9.026 11.245L6.00016 9.4183Z" fill="black" fill-opacity="0.39"/>
</svg>
