<svg width="13" height="11" viewBox="0 0 13 11" fill="none" xmlns="http://www.w3.org/2000/svg">
<path d="M11.4657 1.03752C11.1369 0.707791 10.7454 0.44625 10.3138 0.268128C9.88225 0.0900065 9.41927 -0.00113535 8.95184 1.06747e-05C8.48442 -0.00113535 8.02144 0.0900065 7.58986 0.268128C7.15828 0.44625 6.76674 0.707791 6.43802 1.03752L6.23749 1.2436L6.03696 1.04463C5.37213 0.38503 4.47046 0.0144769 3.5303 0.0144769C2.59013 0.0144769 1.68847 0.38503 1.02364 1.04463C0.367513 1.70881 0 2.60177 0 3.53181C0 4.46185 0.367513 5.35482 1.02364 6.019L5.87223 10.8441C5.97295 10.9439 6.10947 11 6.25181 11C6.39416 11 6.53068 10.9439 6.63139 10.8441L11.48 6.019C12.1364 5.35264 12.5027 4.45711 12.5 3.52535C12.4973 2.59359 12.1259 1.70015 11.4657 1.03752Z" fill="black"/>
</svg>
