<svg width="17" height="17" viewBox="0 0 17 17" fill="none" xmlns="http://www.w3.org/2000/svg">
<path fill-rule="evenodd" clip-rule="evenodd" d="M5.66667 2.83317H11.3333V1.4165H12.75V2.83317H13.4583C13.8341 2.83317 14.1944 2.98243 14.4601 3.2481C14.7257 3.51378 14.875 3.87411 14.875 4.24984V14.1665C14.875 14.5422 14.7257 14.9026 14.4601 15.1682C14.1944 15.4339 13.8341 15.5832 13.4583 15.5832H3.54167C3.16594 15.5832 2.80561 15.4339 2.53993 15.1682C2.27426 14.9026 2.125 14.5422 2.125 14.1665V4.24984C2.125 3.87411 2.27426 3.51378 2.53993 3.2481C2.80561 2.98243 3.16594 2.83317 3.54167 2.83317H4.25V1.4165H5.66667V2.83317ZM3.54167 5.6665V14.1665H13.4583V5.6665H3.54167ZM4.95833 7.7915H6.375V9.20817H4.95833V7.7915ZM7.79167 7.7915H9.20833V9.20817H7.79167V7.7915ZM10.625 7.7915H12.0417V9.20817H10.625V7.7915ZM10.625 10.6248H12.0417V12.0415H10.625V10.6248ZM7.79167 10.6248H9.20833V12.0415H7.79167V10.6248ZM4.95833 10.6248H6.375V12.0415H4.95833V10.6248Z" fill="black" fill-opacity="0.3"/>
<path d="M3.54199 3.8335H13.458C13.5685 3.8335 13.6748 3.87743 13.7529 3.95557C13.8309 4.03361 13.8749 4.1392 13.875 4.24951V4.6665H3.125V4.24951C3.12509 4.1392 3.16911 4.03361 3.24707 3.95557C3.32521 3.87743 3.43149 3.8335 3.54199 3.8335Z" stroke="black" stroke-opacity="0.3" stroke-width="2"/>
</svg>
