<svg width="16" height="5" viewBox="0 0 16 5" fill="none" xmlns="http://www.w3.org/2000/svg">
<path d="M1.976 4.36C1.448 4.36 0.992 4.168 0.608 3.784C0.24 3.4 0.0560001 2.944 0.0560001 2.416C0.0560001 1.904 0.24 1.456 0.608 1.072C0.992 0.688 1.448 0.496 1.976 0.496C2.504 0.496 2.952 0.688 3.32 1.072C3.704 1.456 3.896 1.904 3.896 2.416C3.896 2.944 3.704 3.4 3.32 3.784C2.952 4.168 2.504 4.36 1.976 4.36ZM7.92913 4.36C7.40113 4.36 6.94513 4.168 6.56113 3.784C6.19313 3.4 6.00913 2.944 6.00913 2.416C6.00913 1.904 6.19313 1.456 6.56113 1.072C6.94513 0.688 7.40113 0.496 7.92913 0.496C8.45713 0.496 8.90513 0.688 9.27313 1.072C9.65713 1.456 9.84913 1.904 9.84913 2.416C9.84913 2.944 9.65713 3.4 9.27313 3.784C8.90513 4.168 8.45713 4.36 7.92913 4.36ZM13.8823 4.36C13.3543 4.36 12.8983 4.168 12.5143 3.784C12.1463 3.4 11.9623 2.944 11.9623 2.416C11.9623 1.904 12.1463 1.456 12.5143 1.072C12.8983 0.688 13.3543 0.496 13.8823 0.496C14.4103 0.496 14.8583 0.688 15.2263 1.072C15.6103 1.456 15.8023 1.904 15.8023 2.416C15.8023 2.944 15.6103 3.4 15.2263 3.784C14.8583 4.168 14.4103 4.36 13.8823 4.36Z" fill="black"/>
</svg>
