<svg width="15" height="17" viewBox="0 0 15 17" fill="none" xmlns="http://www.w3.org/2000/svg">
<mask id="path-1-inside-1_2358_16370" fill="white">
<path fill-rule="evenodd" clip-rule="evenodd" d="M8.89129 16.7112C8.95673 16.814 9.05237 16.8956 9.16597 16.9455C9.27958 16.9955 9.40601 17.0116 9.52911 16.9917L14.476 16.1903C14.5582 16.177 14.6368 16.148 14.7073 16.105C14.7777 16.062 14.8386 16.0059 14.8864 15.9399C14.9342 15.8739 14.968 15.7993 14.9857 15.7206C15.0034 15.6418 15.0047 15.5605 14.9895 15.4812L14.1169 10.9401C14.0945 10.8238 14.0374 10.7164 13.9527 10.631C13.868 10.5457 13.7593 10.4861 13.6401 10.4597C13.5209 10.4332 13.3962 10.441 13.2815 10.4822C13.1668 10.5233 13.067 10.5959 12.9945 10.6912L11.4652 12.6971L6.36134 9.24141L8.64897 6.08689C8.76822 5.92213 8.81497 5.71833 8.77895 5.52026C8.74293 5.32219 8.62709 5.14605 8.45687 5.03052L1.23489 0.137246C1.15047 0.0800823 1.05523 0.0395584 0.954618 0.0179882C0.854003 -0.0035821 0.74998 -0.0057763 0.648489 0.0115308C0.546998 0.028838 0.450027 0.0653075 0.36311 0.118857C0.276193 0.172407 0.201034 0.241988 0.141923 0.323628C0.0225439 0.488507 -0.0242167 0.692494 0.0119267 0.890714C0.0298233 0.988863 0.0675354 1.08264 0.122909 1.1667C0.178282 1.25075 0.250231 1.32344 0.334651 1.3806L6.91378 5.83676L4.62615 8.99128C4.50703 9.15619 4.46047 9.36009 4.49673 9.55817C4.53299 9.75625 4.64909 9.93231 4.81951 10.0476L10.5323 13.9173L8.92017 16.0313C8.84593 16.1287 8.80352 16.2454 8.79837 16.3664C8.79323 16.4873 8.82559 16.607 8.89129 16.71"/>
</mask>
<path fill-rule="evenodd" clip-rule="evenodd" d="M8.89129 16.7112C8.95673 16.814 9.05237 16.8956 9.16597 16.9455C9.27958 16.9955 9.40601 17.0116 9.52911 16.9917L14.476 16.1903C14.5582 16.177 14.6368 16.148 14.7073 16.105C14.7777 16.062 14.8386 16.0059 14.8864 15.9399C14.9342 15.8739 14.968 15.7993 14.9857 15.7206C15.0034 15.6418 15.0047 15.5605 14.9895 15.4812L14.1169 10.9401C14.0945 10.8238 14.0374 10.7164 13.9527 10.631C13.868 10.5457 13.7593 10.4861 13.6401 10.4597C13.5209 10.4332 13.3962 10.441 13.2815 10.4822C13.1668 10.5233 13.067 10.5959 12.9945 10.6912L11.4652 12.6971L6.36134 9.24141L8.64897 6.08689C8.76822 5.92213 8.81497 5.71833 8.77895 5.52026C8.74293 5.32219 8.62709 5.14605 8.45687 5.03052L1.23489 0.137246C1.15047 0.0800823 1.05523 0.0395584 0.954618 0.0179882C0.854003 -0.0035821 0.74998 -0.0057763 0.648489 0.0115308C0.546998 0.028838 0.450027 0.0653075 0.36311 0.118857C0.276193 0.172407 0.201034 0.241988 0.141923 0.323628C0.0225439 0.488507 -0.0242167 0.692494 0.0119267 0.890714C0.0298233 0.988863 0.0675354 1.08264 0.122909 1.1667C0.178282 1.25075 0.250231 1.32344 0.334651 1.3806L6.91378 5.83676L4.62615 8.99128C4.50703 9.15619 4.46047 9.36009 4.49673 9.55817C4.53299 9.75625 4.64909 9.93231 4.81951 10.0476L10.5323 13.9173L8.92017 16.0313C8.84593 16.1287 8.80352 16.2454 8.79837 16.3664C8.79323 16.4873 8.82559 16.607 8.89129 16.71" fill="black"/>
<path d="M9.52911 16.9917L10.0068 19.9534L10.0088 19.9531L9.52911 16.9917ZM14.476 16.1903L14.9558 19.1517L14.9561 19.1517L14.476 16.1903ZM14.9895 15.4812L17.9362 14.918L17.9356 14.9151L14.9895 15.4812ZM14.1169 10.9401L17.063 10.374L17.0626 10.372L14.1169 10.9401ZM12.9945 10.6912L15.3802 12.51L15.3804 12.5098L12.9945 10.6912ZM11.4652 12.6971L9.78324 15.1812L12.1315 16.7712L13.8509 14.5159L11.4652 12.6971ZM6.36134 9.24141L3.93272 7.4802L2.11376 9.98847L4.67939 11.7256L6.36134 9.24141ZM8.64897 6.08689L11.0776 7.84809L11.0792 7.84591L8.64897 6.08689ZM8.45687 5.03052L10.1415 2.5482L10.1396 2.54692L8.45687 5.03052ZM1.23489 0.137246L2.91766 -2.34636L2.91695 -2.34684L1.23489 0.137246ZM0.141923 0.323628L-2.28802 -1.43574L0.141923 0.323628ZM0.0119267 0.890714L-2.93941 1.42886L0.0119267 0.890714ZM0.334651 1.3806L2.01702 -1.10327L2.01671 -1.10348L0.334651 1.3806ZM6.91378 5.83676L9.34239 7.59796L11.161 5.09013L8.59615 3.35288L6.91378 5.83676ZM4.62615 8.99128L2.19754 7.23007L2.19433 7.23452L4.62615 8.99128ZM4.81951 10.0476L6.50198 7.56384L6.50096 7.56315L4.81951 10.0476ZM10.5323 13.9173L12.9178 15.7366L14.8421 13.2132L12.2148 11.4335L10.5323 13.9173ZM8.92017 16.0313L6.5347 14.2121L6.53362 14.2135L8.92017 16.0313ZM8.89129 16.7112L6.36081 18.3227C6.75145 18.9361 7.31198 19.4075 7.95833 19.6917L9.16597 16.9455L10.3736 14.1993C10.7928 14.3837 11.162 14.6919 11.4218 15.0998L8.89129 16.7112ZM9.16597 16.9455L7.95833 19.6917C8.60386 19.9756 9.31576 20.0649 10.0068 19.9534L9.52911 16.9917L9.05141 14.03C9.49627 13.9583 9.95531 14.0154 10.3736 14.1993L9.16597 16.9455ZM9.52911 16.9917L10.0088 19.9531L14.9558 19.1517L14.476 16.1903L13.9963 13.229L9.04938 14.0303L9.52911 16.9917ZM14.476 16.1903L14.9561 19.1517C15.4184 19.0767 15.8652 18.9129 16.2701 18.6658L14.7073 16.105L13.1444 13.5443C13.4084 13.3831 13.698 13.2773 13.9959 13.229L14.476 16.1903ZM14.7073 16.105L16.2701 18.6658C16.6752 18.4185 17.0323 18.0916 17.3162 17.6995L14.8864 15.9399L12.4567 14.1802C12.645 13.9202 12.8802 13.7055 13.1444 13.5443L14.7073 16.105ZM14.8864 15.9399L17.3162 17.6995C17.6003 17.3071 17.8047 16.8584 17.9126 16.3786L14.9857 15.7206L12.0587 15.0625C12.1312 14.7402 12.2681 14.4406 12.4567 14.1802L14.8864 15.9399ZM14.9857 15.7206L17.9126 16.3786C18.0205 15.8986 18.0286 15.4016 17.9362 14.918L14.9895 15.4812L12.0429 16.0445C11.9808 15.7194 11.9862 15.385 12.0587 15.0625L14.9857 15.7206ZM14.9895 15.4812L17.9356 14.9151L17.063 10.374L14.1169 10.9401L11.1708 11.5062L12.0434 16.0474L14.9895 15.4812ZM14.1169 10.9401L17.0626 10.372C16.9256 9.66158 16.5794 9.01882 16.082 8.51771L13.9527 10.631L11.8234 12.7443C11.4955 12.4139 11.2634 11.986 11.1712 11.5082L14.1169 10.9401ZM13.9527 10.631L16.082 8.51771C15.5857 8.01762 14.9607 7.67963 14.2896 7.5308L13.6401 10.4597L12.9906 13.3885C12.5579 13.2926 12.1503 13.0737 11.8234 12.7443L13.9527 10.631ZM13.6401 10.4597L14.2896 7.5308C13.6189 7.38206 12.9179 7.4255 12.2689 7.65825L13.2815 10.4822L14.2942 13.3061C13.8745 13.4566 13.4229 13.4844 12.9906 13.3885L13.6401 10.4597ZM13.2815 10.4822L12.2689 7.65825C11.6192 7.89123 11.0387 8.30814 10.6085 8.87258L12.9945 10.6912L15.3804 12.5098C15.0953 12.8838 14.7145 13.1554 14.2942 13.3061L13.2815 10.4822ZM12.9945 10.6912L10.6087 8.87231L9.07946 10.8782L11.4652 12.6971L13.8509 14.5159L15.3802 12.51L12.9945 10.6912ZM11.4652 12.6971L13.1471 10.2129L8.04328 6.75725L6.36134 9.24141L4.67939 11.7256L9.78324 15.1812L11.4652 12.6971ZM6.36134 9.24141L8.78995 11.0026L11.0776 7.84809L8.64897 6.08689L6.22036 4.32568L3.93272 7.4802L6.36134 9.24141ZM8.64897 6.08689L11.0792 7.84591C11.6722 7.0266 11.9145 5.99522 11.7305 4.98351L8.77895 5.52026L5.82736 6.05701C5.71542 5.44144 5.86425 4.81766 6.21877 4.32787L8.64897 6.08689ZM8.77895 5.52026L11.7305 4.98351C11.5469 3.97389 10.9617 3.10481 10.1415 2.54821L8.45687 5.03052L6.7722 7.51284C6.2925 7.18728 5.93892 6.67049 5.82736 6.05701L8.77895 5.52026ZM8.45687 5.03052L10.1396 2.54692L2.91766 -2.34636L1.23489 0.137246L-0.447886 2.62085L6.77409 7.51412L8.45687 5.03052ZM1.23489 0.137246L2.91695 -2.34684C2.51054 -2.62203 2.05717 -2.81381 1.58348 -2.91536L0.954618 0.0179882L0.32575 2.95134C0.053299 2.89293 -0.209606 2.7822 -0.447177 2.62133L1.23489 0.137246ZM0.954618 0.0179882L1.58348 -2.91536C1.10989 -3.01689 0.621281 -3.02714 0.144184 -2.94578L0.648489 0.0115308L1.15279 2.96884C0.878679 3.01558 0.598114 3.00973 0.32575 2.95134L0.954618 0.0179882ZM0.648489 0.0115308L0.144184 -2.94578C-0.332985 -2.86441 -0.793442 -2.69226 -1.21051 -2.4353L0.36311 0.118857L1.93673 2.67301C1.69349 2.82287 1.42698 2.92208 1.15279 2.96884L0.648489 0.0115308ZM0.36311 0.118857L-1.21051 -2.4353C-1.62778 -2.17822 -1.99529 -1.84005 -2.28802 -1.43574L0.141923 0.323628L2.57186 2.083C2.39735 2.32402 2.18016 2.52303 1.93673 2.67301L0.36311 0.118857ZM0.141923 0.323628L-2.28802 -1.43574C-2.88164 -0.615873 -3.12402 0.416429 -2.93941 1.42886L0.0119267 0.890714L2.96326 0.352567C3.07558 0.968559 2.92672 1.59289 2.57186 2.083L0.141923 0.323628ZM0.0119267 0.890714L-2.93941 1.42886C-2.84847 1.92762 -2.65765 2.39915 -2.38233 2.81709L0.122909 1.1667L2.62815 -0.483693C2.79272 -0.23387 2.90811 0.0501101 2.96326 0.352567L0.0119267 0.890714ZM0.122909 1.1667L-2.38233 2.81709C-2.10718 3.23476 -1.75404 3.58934 -1.34741 3.86468L0.334651 1.3806L2.01671 -1.10348C2.2545 -0.942469 2.46374 -0.733256 2.62815 -0.483693L0.122909 1.1667ZM0.334651 1.3806L-1.34772 3.86447L5.23141 8.32063L6.91378 5.83676L8.59615 3.35288L2.01702 -1.10327L0.334651 1.3806ZM6.91378 5.83676L4.48517 4.07555L2.19754 7.23008L4.62615 8.99128L7.05477 10.7525L9.34239 7.59796L6.91378 5.83676ZM4.62615 8.99128L2.19433 7.23452C1.60188 8.05462 1.36057 9.08657 1.54576 10.0983L4.49673 9.55817L7.4477 9.01803C7.56038 9.63361 7.41217 10.2577 7.05798 10.748L4.62615 8.99128ZM4.49673 9.55817L1.54576 10.0983C1.73056 11.108 2.31705 11.9765 3.13806 12.5321L4.81951 10.0476L6.50096 7.56315C6.98112 7.88811 7.33541 8.40454 7.4477 9.01803L4.49673 9.55817ZM4.81951 10.0476L3.13704 12.5315L8.84984 16.4012L10.5323 13.9173L12.2148 11.4335L6.50198 7.56384L4.81951 10.0476ZM10.5323 13.9173L8.14684 12.0981L6.5347 14.2121L8.92017 16.0313L11.3056 17.8505L12.9178 15.7366L10.5323 13.9173ZM8.92017 16.0313L6.53362 14.2135C6.09265 14.7924 5.83263 15.4975 5.80109 16.2389L8.79837 16.3664L11.7957 16.4939C11.7744 16.9934 11.5992 17.4651 11.3067 17.8491L8.92017 16.0313ZM8.79837 16.3664L5.80109 16.2389C5.76953 16.9804 5.96883 17.7068 6.36187 18.3231L8.89129 16.71L11.4207 15.0969C11.6823 15.5072 11.8169 15.9942 11.7957 16.4939L8.79837 16.3664Z" fill="black" mask="url(#path-1-inside-1_2358_16370)"/>
</svg>
