<svg width="17" height="15" viewBox="0 0 17 15" fill="none" xmlns="http://www.w3.org/2000/svg">
<mask id="path-1-inside-1_2358_16367" fill="white">
<path fill-rule="evenodd" clip-rule="evenodd" d="M16.7112 6.10871C16.814 6.04327 16.8956 5.94763 16.9455 5.83403C16.9955 5.72042 17.0116 5.59399 16.9917 5.47089L16.1903 0.523981C16.177 0.441806 16.148 0.363195 16.105 0.292732C16.062 0.222269 16.0059 0.161363 15.9399 0.113565C15.8739 0.0657675 15.7993 0.0320342 15.7206 0.0143319C15.6418 -0.00337044 15.5605 -0.00468753 15.4812 0.0104574L10.9401 0.883071C10.8238 0.9055 10.7164 0.962579 10.631 1.04729C10.5457 1.132 10.4861 1.24066 10.4597 1.3599C10.4332 1.47914 10.441 1.60377 10.4822 1.71847C10.5233 1.83318 10.5959 1.93295 10.6912 2.00554L12.6971 3.53481L9.24141 8.63866L6.08689 6.35103C5.92213 6.23178 5.71833 6.18503 5.52026 6.22105C5.32219 6.25707 5.14605 6.37291 5.03052 6.54313L0.137246 13.7651C0.0800823 13.8495 0.0395584 13.9448 0.0179882 14.0454C-0.0035821 14.146 -0.0057763 14.25 0.0115308 14.3515C0.028838 14.453 0.0653075 14.55 0.118857 14.6369C0.172407 14.7238 0.241988 14.799 0.323628 14.8581C0.488507 14.9775 0.692494 15.0242 0.890714 14.9881C0.988863 14.9702 1.08264 14.9325 1.1667 14.8771C1.25075 14.8217 1.32344 14.7498 1.3806 14.6653L5.83676 8.08622L8.99128 10.3738C9.15619 10.493 9.36009 10.5395 9.55817 10.5033C9.75625 10.467 9.93231 10.3509 10.0476 10.1805L13.9173 4.46769L16.0313 6.07983C16.1287 6.15407 16.2454 6.19648 16.3664 6.20163C16.4873 6.20677 16.607 6.17441 16.71 6.10871"/>
</mask>
<path fill-rule="evenodd" clip-rule="evenodd" d="M16.7112 6.10871C16.814 6.04327 16.8956 5.94763 16.9455 5.83403C16.9955 5.72042 17.0116 5.59399 16.9917 5.47089L16.1903 0.523981C16.177 0.441806 16.148 0.363195 16.105 0.292732C16.062 0.222269 16.0059 0.161363 15.9399 0.113565C15.8739 0.0657675 15.7993 0.0320342 15.7206 0.0143319C15.6418 -0.00337044 15.5605 -0.00468753 15.4812 0.0104574L10.9401 0.883071C10.8238 0.9055 10.7164 0.962579 10.631 1.04729C10.5457 1.132 10.4861 1.24066 10.4597 1.3599C10.4332 1.47914 10.441 1.60377 10.4822 1.71847C10.5233 1.83318 10.5959 1.93295 10.6912 2.00554L12.6971 3.53481L9.24141 8.63866L6.08689 6.35103C5.92213 6.23178 5.71833 6.18503 5.52026 6.22105C5.32219 6.25707 5.14605 6.37291 5.03052 6.54313L0.137246 13.7651C0.0800823 13.8495 0.0395584 13.9448 0.0179882 14.0454C-0.0035821 14.146 -0.0057763 14.25 0.0115308 14.3515C0.028838 14.453 0.0653075 14.55 0.118857 14.6369C0.172407 14.7238 0.241988 14.799 0.323628 14.8581C0.488507 14.9775 0.692494 15.0242 0.890714 14.9881C0.988863 14.9702 1.08264 14.9325 1.1667 14.8771C1.25075 14.8217 1.32344 14.7498 1.3806 14.6653L5.83676 8.08622L8.99128 10.3738C9.15619 10.493 9.36009 10.5395 9.55817 10.5033C9.75625 10.467 9.93231 10.3509 10.0476 10.1805L13.9173 4.46769L16.0313 6.07983C16.1287 6.15407 16.2454 6.19648 16.3664 6.20163C16.4873 6.20677 16.607 6.17441 16.71 6.10871" fill="black"/>
<path d="M16.9917 5.47089L19.9534 4.99318L19.9531 4.99115L16.9917 5.47089ZM16.1903 0.523981L19.1517 0.0442466L19.1517 0.0438641L16.1903 0.523981ZM15.4812 0.0104574L14.918 -2.9362L14.9151 -2.93564L15.4812 0.0104574ZM10.9401 0.883071L10.374 -2.06303L10.372 -2.06265L10.9401 0.883071ZM10.6912 2.00554L12.51 -0.38019L12.5098 -0.380395L10.6912 2.00554ZM12.6971 3.53481L15.1812 5.21676L16.7712 2.86847L14.5159 1.14908L12.6971 3.53481ZM9.24141 8.63866L7.4802 11.0673L9.98847 12.8862L11.7256 10.3206L9.24141 8.63866ZM6.08689 6.35103L7.84809 3.92242L7.84591 3.92084L6.08689 6.35103ZM5.03052 6.54313L2.5482 4.85847L2.54692 4.86036L5.03052 6.54313ZM0.137246 13.7651L-2.34636 12.0823L-2.34684 12.083L0.137246 13.7651ZM0.323628 14.8581L-1.43574 17.288L0.323628 14.8581ZM0.890714 14.9881L1.42886 17.9394L0.890714 14.9881ZM1.3806 14.6653L-1.10327 12.983L-1.10348 12.9833L1.3806 14.6653ZM5.83676 8.08622L7.59796 5.65761L5.09013 3.83895L3.35288 6.40385L5.83676 8.08622ZM8.99128 10.3738L7.23007 12.8025L7.23452 12.8057L8.99128 10.3738ZM10.0476 10.1805L7.56384 8.49802L7.56315 8.49904L10.0476 10.1805ZM13.9173 4.46769L15.7366 2.08222L13.2132 0.15788L11.4335 2.78523L13.9173 4.46769ZM16.0313 6.07983L14.2121 8.4653L14.2135 8.46638L16.0313 6.07983ZM16.7112 6.10871L18.3227 8.63919C18.9361 8.24855 19.4075 7.68802 19.6917 7.04167L16.9455 5.83403L14.1993 4.62639C14.3837 4.20725 14.6919 3.83799 15.0998 3.57823L16.7112 6.10871ZM16.9455 5.83403L19.6917 7.04167C19.9756 6.39614 20.0649 5.68424 19.9534 4.99318L16.9917 5.47089L14.03 5.94859C13.9583 5.50373 14.0154 5.04469 14.1993 4.62639L16.9455 5.83403ZM16.9917 5.47089L19.9531 4.99115L19.1517 0.0442466L16.1903 0.523981L13.229 1.00372L14.0303 5.95062L16.9917 5.47089ZM16.1903 0.523981L19.1517 0.0438641C19.0767 -0.418426 18.9129 -0.865224 18.6658 -1.27013L16.105 0.292732L13.5443 1.8556C13.3831 1.59161 13.2773 1.30204 13.229 1.0041L16.1903 0.523981ZM16.105 0.292732L18.6658 -1.27013C18.4185 -1.67525 18.0916 -2.03226 17.6995 -2.3162L15.9399 0.113565L14.1802 2.54333C13.9202 2.35498 13.7055 2.11979 13.5443 1.8556L16.105 0.292732ZM15.9399 0.113565L17.6995 -2.3162C17.3071 -2.60034 16.8584 -2.80473 16.3786 -2.91261L15.7206 0.0143319L15.0625 2.94127C14.7402 2.8688 14.4406 2.73188 14.1802 2.54333L15.9399 0.113565ZM15.7206 0.0143319L16.3786 -2.91261C15.8986 -3.02052 15.4016 -3.02862 14.918 -2.9362L15.4812 0.0104574L16.0445 2.95711C15.7194 3.01925 15.385 3.01378 15.0625 2.94127L15.7206 0.0143319ZM15.4812 0.0104574L14.9151 -2.93564L10.374 -2.06303L10.9401 0.883071L11.5062 3.82917L16.0474 2.95656L15.4812 0.0104574ZM10.9401 0.883071L10.372 -2.06265C9.66158 -1.92564 9.01882 -1.57936 8.51771 -1.08202L10.631 1.04729L12.7443 3.1766C12.4139 3.50452 11.986 3.73664 11.5082 3.82879L10.9401 0.883071ZM10.631 1.04729L8.51771 -1.08202C8.01762 -0.585692 7.67963 0.039259 7.5308 0.71041L10.4597 1.3599L13.3885 2.00939C13.2926 2.44205 13.0737 2.8497 12.7443 3.1766L10.631 1.04729ZM10.4597 1.3599L7.5308 0.71041C7.38206 1.38114 7.4255 2.08208 7.65825 2.73113L10.4822 1.71847L13.3061 0.705821C13.4566 1.12546 13.4844 1.57713 13.3885 2.00939L10.4597 1.3599ZM10.4822 1.71847L7.65825 2.73113C7.89123 3.38083 8.30814 3.96126 8.87258 4.39148L10.6912 2.00554L12.5098 -0.380395C12.8838 -0.0953462 13.1554 0.285528 13.3061 0.705821L10.4822 1.71847ZM10.6912 2.00554L8.87231 4.39127L10.8782 5.92054L12.6971 3.53481L14.5159 1.14908L12.51 -0.38019L10.6912 2.00554ZM12.6971 3.53481L10.2129 1.85287L6.75725 6.95672L9.24141 8.63866L11.7256 10.3206L15.1812 5.21676L12.6971 3.53481ZM9.24141 8.63866L11.0026 6.21005L7.84809 3.92242L6.08689 6.35103L4.32568 8.77964L7.4802 11.0673L9.24141 8.63866ZM6.08689 6.35103L7.84591 3.92084C7.0266 3.32781 5.99522 3.08547 4.98351 3.26945L5.52026 6.22105L6.05701 9.17264C5.44144 9.28458 4.81766 9.13575 4.32787 8.78123L6.08689 6.35103ZM5.52026 6.22105L4.98351 3.26945C3.97389 3.45305 3.10481 4.03832 2.54821 4.85847L5.03052 6.54313L7.51284 8.2278C7.18728 8.7075 6.67049 9.06108 6.05701 9.17264L5.52026 6.22105ZM5.03052 6.54313L2.54692 4.86036L-2.34636 12.0823L0.137246 13.7651L2.62085 15.4479L7.51412 8.22591L5.03052 6.54313ZM0.137246 13.7651L-2.34684 12.083C-2.62203 12.4895 -2.81381 12.9428 -2.91536 13.4165L0.0179882 14.0454L2.95134 14.6742C2.89293 14.9467 2.7822 15.2096 2.62133 15.4472L0.137246 13.7651ZM0.0179882 14.0454L-2.91536 13.4165C-3.01689 13.8901 -3.02714 14.3787 -2.94578 14.8558L0.0115308 14.3515L2.96884 13.8472C3.01558 14.1213 3.00973 14.4019 2.95134 14.6742L0.0179882 14.0454ZM0.0115308 14.3515L-2.94578 14.8558C-2.86441 15.333 -2.69226 15.7934 -2.4353 16.2105L0.118857 14.6369L2.67301 13.0633C2.82287 13.3065 2.92208 13.573 2.96884 13.8472L0.0115308 14.3515ZM0.118857 14.6369L-2.4353 16.2105C-2.17822 16.6278 -1.84005 16.9953 -1.43574 17.288L0.323628 14.8581L2.083 12.4281C2.32402 12.6026 2.52303 12.8198 2.67301 13.0633L0.118857 14.6369ZM0.323628 14.8581L-1.43574 17.288C-0.615873 17.8816 0.416429 18.124 1.42886 17.9394L0.890714 14.9881L0.352567 12.0367C0.968559 11.9244 1.59289 12.0733 2.083 12.4281L0.323628 14.8581ZM0.890714 14.9881L1.42886 17.9394C1.92762 17.8485 2.39915 17.6577 2.81709 17.3823L1.1667 14.8771L-0.483693 12.3719C-0.23387 12.2073 0.0501101 12.0919 0.352567 12.0367L0.890714 14.9881ZM1.1667 14.8771L2.81709 17.3823C3.23476 17.1072 3.58934 16.754 3.86468 16.3474L1.3806 14.6653L-1.10348 12.9833C-0.942469 12.7455 -0.733256 12.5363 -0.483693 12.3719L1.1667 14.8771ZM1.3806 14.6653L3.86447 16.3477L8.32063 9.76859L5.83676 8.08622L3.35288 6.40385L-1.10327 12.983L1.3806 14.6653ZM5.83676 8.08622L4.07555 10.5148L7.23008 12.8025L8.99128 10.3738L10.7525 7.94523L7.59796 5.65761L5.83676 8.08622ZM8.99128 10.3738L7.23452 12.8057C8.05462 13.3981 9.08657 13.6394 10.0983 13.4542L9.55817 10.5033L9.01803 7.5523C9.63361 7.43962 10.2577 7.58783 10.748 7.94202L8.99128 10.3738ZM9.55817 10.5033L10.0983 13.4542C11.108 13.2694 11.9765 12.683 12.5321 11.8619L10.0476 10.1805L7.56315 8.49904C7.88811 8.01888 8.40454 7.66459 9.01803 7.5523L9.55817 10.5033ZM10.0476 10.1805L12.5315 11.863L16.4012 6.15016L13.9173 4.46769L11.4335 2.78523L7.56384 8.49802L10.0476 10.1805ZM13.9173 4.46769L12.0981 6.85316L14.2121 8.4653L16.0313 6.07983L17.8505 3.69436L15.7366 2.08222L13.9173 4.46769ZM16.0313 6.07983L14.2135 8.46638C14.7924 8.90735 15.4975 9.16737 16.2389 9.19891L16.3664 6.20163L16.4939 3.20434C16.9934 3.22559 17.4651 3.40078 17.8491 3.69329L16.0313 6.07983ZM16.3664 6.20163L16.2389 9.19891C16.9804 9.23047 17.7068 9.03117 18.3231 8.63813L16.71 6.10871L15.0969 3.57929C15.5072 3.31766 15.9942 3.18308 16.4939 3.20434L16.3664 6.20163Z" fill="black" mask="url(#path-1-inside-1_2358_16367)"/>
</svg>
