<svg width="24" height="24" viewBox="0 0 24 24" fill="none" xmlns="http://www.w3.org/2000/svg">
<path d="M12 20.25H4.5C4.30109 20.25 4.11032 20.171 3.96967 20.0303C3.82902 19.8897 3.75 19.6989 3.75 19.5V12C3.75 11.8011 3.82902 11.6103 3.96967 11.4697C4.11032 11.329 4.30109 11.25 4.5 11.25H12M12 20.25V11.25M12 20.25H19.5C19.6989 20.25 19.8897 20.171 20.0303 20.0303C20.171 19.8897 20.25 19.6989 20.25 19.5V12C20.25 11.8011 20.171 11.6103 20.0303 11.4697C19.8897 11.329 19.6989 11.25 19.5 11.25H12M15.75 12V15M12.75 4.5V7.5M8.25 12V15M6.75 4.5V11.25H17.25V4.5C17.25 4.30109 17.171 4.11032 17.0303 3.96967C16.8897 3.82902 16.6989 3.75 16.5 3.75H7.5C7.30109 3.75 7.11032 3.82902 6.96967 3.96967C6.82902 4.11032 6.75 4.30109 6.75 4.5Z" stroke="#5389C5" stroke-width="2"/>
</svg>
