<svg width="30" height="30" viewBox="0 0 30 30" fill="none" xmlns="http://www.w3.org/2000/svg">
<path d="M4.54567 14.1161C4.31133 14.3505 4.17969 14.6684 4.17969 14.9998C4.17969 15.3313 4.31133 15.6492 4.54567 15.8836L11.6169 22.9548C11.7322 23.0742 11.8702 23.1694 12.0227 23.2349C12.1752 23.3005 12.3392 23.3349 12.5052 23.3364C12.6711 23.3378 12.8357 23.3062 12.9894 23.2433C13.143 23.1805 13.2825 23.0877 13.3999 22.9703C13.5173 22.8529 13.6101 22.7134 13.6729 22.5598C13.7358 22.4061 13.7674 22.2415 13.766 22.0756C13.7645 21.9096 13.7301 21.7456 13.6645 21.5931C13.599 21.4406 13.5038 21.3026 13.3844 21.1873L8.44692 16.2498H25.0007C25.3322 16.2498 25.6501 16.1181 25.8846 15.8837C26.119 15.6493 26.2507 15.3313 26.2507 14.9998C26.2507 14.6683 26.119 14.3504 25.8846 14.1159C25.6501 13.8815 25.3322 13.7498 25.0007 13.7498L8.44692 13.7498L13.3844 8.81231C13.6121 8.57656 13.7381 8.26081 13.7353 7.93306C13.7324 7.60532 13.601 7.2918 13.3692 7.06004C13.1374 6.82828 12.8239 6.69682 12.4962 6.69397C12.1684 6.69112 11.8527 6.81712 11.6169 7.04482L4.54567 14.1161Z" fill="#0955AC"/>
</svg>
