<svg width="34" height="25" viewBox="0 0 34 25" fill="none" xmlns="http://www.w3.org/2000/svg">
<path d="M33.1815 13.8257C33.533 13.474 33.7305 12.9972 33.7305 12.5C33.7305 12.0028 33.533 11.526 33.1815 11.1744L22.5746 0.567533C22.4017 0.388451 22.1948 0.245609 21.966 0.147343C21.7372 0.0490757 21.4912 -0.00264861 21.2422 -0.00481202C20.9933 -0.00697542 20.7464 0.0404658 20.516 0.134742C20.2855 0.229019 20.0762 0.368244 19.9001 0.544293C19.7241 0.720341 19.5849 0.929688 19.4906 1.16012C19.3963 1.39055 19.3489 1.63745 19.351 1.88641C19.3532 2.13537 19.4049 2.38141 19.5032 2.61017C19.6014 2.83892 19.7443 3.04582 19.9234 3.21878L27.3296 10.625L2.499 10.625C2.00172 10.625 1.5248 10.8226 1.17317 11.1742C0.821541 11.5258 0.623997 12.0028 0.623997 12.5C0.623997 12.9973 0.821541 13.4742 1.17317 13.8259C1.5248 14.1775 2.00172 14.375 2.499 14.375L27.3296 14.375L19.9234 21.7813C19.5818 22.1349 19.3928 22.6085 19.3971 23.1002C19.4014 23.5918 19.5986 24.0621 19.9462 24.4097C20.2939 24.7573 20.7641 24.9545 21.2557 24.9588C21.7474 24.9631 22.221 24.7741 22.5746 24.4325L33.1815 13.8257Z" fill="white"/>
</svg>
