<svg width="22" height="22" viewBox="0 0 22 22" fill="none" xmlns="http://www.w3.org/2000/svg">
<path d="M18.9824 18.2744C18.9402 18.5929 18.8221 18.8971 18.6377 19.1602C18.4533 19.4232 18.2078 19.6379 17.9229 19.7861C17.6378 19.9344 17.3213 20.0117 17 20.0117C16.6787 20.0117 16.3622 19.9344 16.0771 19.7861C15.7922 19.6379 15.5467 19.4232 15.3623 19.1602C15.1779 18.8971 15.0598 18.5929 15.0176 18.2744C15.0145 18.2512 15.014 18.2274 15.0117 18.2041C15.0321 18.392 15.0792 18.5774 15.1523 18.7539C15.3037 19.1192 15.5599 19.4317 15.8887 19.6514C16.2176 19.8711 16.6044 19.9883 17 19.9883C17.5304 19.9883 18.039 19.7774 18.4141 19.4023C18.74 19.0764 18.941 18.6496 18.9883 18.1953C18.9859 18.2215 18.9859 18.2483 18.9824 18.2744ZM6.00195 17.9033C5.98963 18.1931 6.04041 18.4837 6.15234 18.7539C6.30372 19.1192 6.55988 19.4317 6.88867 19.6514C7.21758 19.8711 7.60444 19.9883 8 19.9883C8.53043 19.9883 9.03899 19.7774 9.41406 19.4023C9.64511 19.1713 9.81273 18.8893 9.9082 18.583C9.84464 18.7926 9.74974 18.9919 9.62109 19.1709C9.43163 19.4343 9.17998 19.6481 8.88965 19.793C8.59941 19.9377 8.27837 20.0099 7.9541 20.0029C7.62978 19.996 7.31212 19.9101 7.02832 19.7529C6.74454 19.5958 6.50319 19.3718 6.3252 19.1006C6.14719 18.8293 6.03706 18.5183 6.00586 18.1953C5.99647 18.0979 5.99708 18.0004 6.00195 17.9033ZM9.94336 18.4453C9.93474 18.4833 9.92682 18.5213 9.91602 18.5586C9.9271 18.5214 9.93445 18.4832 9.94336 18.4453ZM9.97754 18.2812C9.97596 18.2925 9.97149 18.3033 9.96973 18.3145C9.97296 18.2949 9.97683 18.2755 9.97949 18.2559C9.97844 18.2641 9.9787 18.273 9.97754 18.2812ZM18.998 18.0107C18.9981 18.044 18.9958 18.0771 18.9941 18.1104C18.9962 18.0772 18.9977 18.0441 18.998 18.0107ZM15.001 18.0459C15.0008 18.0338 15.001 18.0218 15.001 18.0098C15.0011 18.0218 15.0006 18.0339 15.001 18.0459ZM6.0166 17.7275C6.01847 17.7141 6.0213 17.7009 6.02344 17.6875C6.0214 17.7009 6.01836 17.7141 6.0166 17.7275ZM9.39746 15.9883L9.81543 17.1494C9.77191 17.0552 9.72122 16.964 9.66309 16.877C9.44338 16.5482 9.13094 16.292 8.76562 16.1406C8.40018 15.9893 7.99734 15.9492 7.60938 16.0264C7.22156 16.1036 6.86556 16.2946 6.58594 16.5742C6.4175 16.7427 6.28206 16.9391 6.18359 17.1533L6.57422 16.1973L5.71191 15.9648C5.80688 15.9787 5.90289 15.9883 6 15.9883H8.60645L8.17969 14.8115C8.27811 15.0292 8.41379 15.2302 8.58594 15.4023C8.96101 15.7774 9.46957 15.9883 10 15.9883H9.39746ZM16 15.9883C16.5304 15.9883 17.039 15.7774 17.4141 15.4023C17.5861 15.2303 17.7209 15.029 17.8193 14.8115L17.3936 15.9883H18.3936L18.8086 17.1338C18.7667 17.0451 18.718 16.9592 18.6631 16.877C18.4434 16.5482 18.1309 16.292 17.7656 16.1406C17.4002 15.9893 16.9973 15.9492 16.6094 16.0264C16.2216 16.1036 15.8656 16.2946 15.5859 16.5742C15.4177 16.7424 15.282 16.9385 15.1836 17.1523L15.6064 15.9883H16Z" fill="#0955AC" stroke="#5389C5" stroke-width="2"/>
</svg>
