<svg width="20" height="20" viewBox="0 0 20 20" fill="none" xmlns="http://www.w3.org/2000/svg">
<path fill-rule="evenodd" clip-rule="evenodd" d="M9.21642 0.86147C13.6617 0.490738 17.4064 3.83534 17.5 8.1478L17.5002 8.1659C17.5002 9.67331 17.0281 11.0821 16.1911 12.292L16.1828 12.3038L11.9531 18.1968C11.9447 18.2085 11.936 18.22 11.927 18.2312C10.9548 19.4474 9.04268 19.5223 8.10846 18.1931L3.87738 12.2982C2.77447 10.7345 2.1949 8.76035 2.66359 6.67106C3.24151 3.53826 5.97309 1.23203 9.19099 0.863985C9.19945 0.863016 9.20793 0.862178 9.21642 0.86147ZM9.36769 2.52132C6.79214 2.82113 4.72386 4.65461 4.30014 6.98686C4.29797 6.99878 4.29555 7.01064 4.29287 7.02245C3.93973 8.57746 4.35434 10.0815 5.23743 11.3348L9.47099 17.2332C9.69659 17.5557 10.2593 17.6313 10.6137 17.2047L14.8245 11.338C15.4761 10.3938 15.8317 9.31783 15.8336 8.17494C15.7564 4.85972 12.8752 2.23573 9.36769 2.52132Z" fill="#286BB6"/>
<path fill-rule="evenodd" clip-rule="evenodd" d="M10 6.58341C9.12555 6.58341 8.41667 7.2923 8.41667 8.16675C8.41667 9.0412 9.12555 9.75008 10 9.75008C10.8745 9.75008 11.5833 9.0412 11.5833 8.16675C11.5833 7.2923 10.8745 6.58341 10 6.58341ZM6.75 8.16675C6.75 6.37182 8.20507 4.91675 10 4.91675C11.7949 4.91675 13.25 6.37182 13.25 8.16675C13.25 9.96167 11.7949 11.4167 10 11.4167C8.20507 11.4167 6.75 9.96167 6.75 8.16675Z" fill="#286BB6"/>
<path fill-rule="evenodd" clip-rule="evenodd" d="M10 6.58341C9.12555 6.58341 8.41667 7.2923 8.41667 8.16675C8.41667 9.0412 9.12555 9.75008 10 9.75008C10.8745 9.75008 11.5833 9.0412 11.5833 8.16675C11.5833 7.2923 10.8745 6.58341 10 6.58341ZM6.75 8.16675C6.75 6.37182 8.20507 4.91675 10 4.91675C11.7949 4.91675 13.25 6.37182 13.25 8.16675C13.25 9.96167 11.7949 11.4167 10 11.4167C8.20507 11.4167 6.75 9.96167 6.75 8.16675Z" fill="#286BB6"/>
<path fill-rule="evenodd" clip-rule="evenodd" d="M10 6.58341C9.12555 6.58341 8.41667 7.2923 8.41667 8.16675C8.41667 9.0412 9.12555 9.75008 10 9.75008C10.8745 9.75008 11.5833 9.0412 11.5833 8.16675C11.5833 7.2923 10.8745 6.58341 10 6.58341ZM6.75 8.16675C6.75 6.37182 8.20507 4.91675 10 4.91675C11.7949 4.91675 13.25 6.37182 13.25 8.16675C13.25 9.96167 11.7949 11.4167 10 11.4167C8.20507 11.4167 6.75 9.96167 6.75 8.16675Z" fill="#286BB6"/>
</svg>
