<svg width="31" height="25" viewBox="0 0 31 25" fill="none" xmlns="http://www.w3.org/2000/svg">
<path d="M15.5 10.9583C18.0543 10.9583 20.125 8.88757 20.125 6.33325C20.125 3.77893 18.0543 1.70825 15.5 1.70825C12.9457 1.70825 10.875 3.77893 10.875 6.33325C10.875 8.88757 12.9457 10.9583 15.5 10.9583Z" stroke="white" stroke-opacity="0.7" stroke-width="2" stroke-linecap="round"/>
<path d="M20.5384 6.33331C20.7393 5.97981 21.0083 5.66957 21.3296 5.42043C21.651 5.17129 22.0185 4.98818 22.4109 4.88164C22.8033 4.7751 23.2129 4.74723 23.6162 4.79965C24.0194 4.85206 24.4083 4.98371 24.7605 5.18703C25.1126 5.39035 25.4211 5.66132 25.6681 5.98434C25.9151 6.30735 26.0957 6.67603 26.1997 7.06915C26.3036 7.46228 26.3288 7.87208 26.2737 8.27496C26.2186 8.67784 26.0843 9.06585 25.8787 9.41664C25.4669 10.119 24.794 10.6301 24.0069 10.8382C23.2197 11.0463 22.3822 10.9346 21.6771 10.5275C20.9719 10.1204 20.4565 9.45089 20.2431 8.66512C20.0298 7.87936 20.1359 7.04111 20.5384 6.33331ZM5.1217 6.33331C5.32268 5.97981 5.59159 5.66957 5.91296 5.42043C6.23433 5.17129 6.60181 4.98818 6.99423 4.88164C7.38665 4.7751 7.79628 4.74723 8.19952 4.79965C8.60275 4.85206 8.99164 4.98371 9.34379 5.18703C9.69594 5.39035 10.0044 5.66132 10.2514 5.98434C10.4984 6.30735 10.6791 6.67603 10.783 7.06915C10.8869 7.46228 10.9121 7.87208 10.857 8.27496C10.8019 8.67784 10.6677 9.06585 10.462 9.41664C10.0503 10.119 9.37736 10.6301 8.5902 10.8382C7.80304 11.0463 6.96551 10.9346 6.26039 10.5275C5.55527 10.1204 5.0398 9.45089 4.82647 8.66512C4.61314 7.87936 4.71927 7.04111 5.1217 6.33331Z" stroke="white" stroke-opacity="0.7" stroke-width="2"/>
<path d="M23.0263 21.7498L21.5155 22.0535L21.7622 23.2915H23.0263V21.7498ZM19.7857 16.6793L18.8546 15.4506L17.0709 16.8057L18.9733 17.9882L19.7857 16.6793ZM27.6297 20.2082H23.0279L23.0263 23.2915H27.6297V20.2082ZM27.491 20.5751C27.4746 20.5237 27.4719 20.469 27.4833 20.4163C27.4915 20.3614 27.5144 20.3097 27.5496 20.2668C27.5989 20.2051 27.6405 20.2082 27.6297 20.2082V23.2915C29.3965 23.2915 31.1339 21.6265 30.397 19.5453L27.491 20.5751ZM23.2082 17.1248C25.7397 17.1248 26.9129 18.9455 27.491 20.5751L30.397 19.5453C29.6802 17.5241 27.7531 14.0415 23.2082 14.0415V17.1248ZM20.72 17.9065C21.312 17.4563 22.1013 17.1248 23.2082 17.1248V14.0415C21.4168 14.0415 19.9754 14.5996 18.8546 15.4506L20.72 17.9065ZM18.9733 17.9882C20.5751 18.9841 21.2457 20.72 21.5139 22.0535L24.5356 21.4461C24.2011 19.7765 23.2653 17.0262 20.6013 15.3689L18.9733 17.9882ZM11.2141 16.6778L12.0265 17.9882L13.9289 16.8057L12.1452 15.4506L11.2141 16.6778ZM7.97349 21.7498V23.2915H9.23611L9.48586 22.0535L7.97349 21.7498ZM7.79157 17.1248C8.89849 17.1248 9.68782 17.4563 10.2798 17.9065L12.1452 15.4506C11.0244 14.5996 9.58299 14.0415 7.79157 14.0415V17.1248ZM3.50882 20.5751C4.08695 18.9455 5.26015 17.1248 7.79157 17.1248V14.0415C3.24674 14.0415 1.31965 17.5241 0.602778 19.5453L3.50882 20.5751ZM3.37007 20.2082C3.36082 20.2082 3.4009 20.2051 3.45178 20.2668C3.48638 20.3099 3.50875 20.3615 3.51653 20.4163C3.52788 20.469 3.52523 20.5237 3.50882 20.5751L0.602778 19.5453C-0.132597 21.6265 1.60486 23.2915 3.37161 23.2915L3.37007 20.2082ZM7.97349 20.2082H3.37007L3.37161 23.2915H7.97349V20.2082ZM9.48432 22.0535C9.75411 20.72 10.4247 18.9841 12.0281 17.9882L10.397 15.3673C7.73299 17.0246 6.7972 19.7765 6.46111 21.4446L9.48432 22.0535Z" fill="white" fill-opacity="0.7"/>
<path d="M15.499 15.5833C21.0058 15.5833 22.5783 19.516 23.027 21.7638C23.195 22.5978 22.5182 23.2916 21.6657 23.2916H9.33233C8.48133 23.2916 7.80299 22.5978 7.97104 21.7638C8.41966 19.5145 9.99216 15.5833 15.499 15.5833Z" stroke="white" stroke-opacity="0.7" stroke-width="2" stroke-linecap="round"/>
</svg>
