<svg width="30" height="30" viewBox="0 0 30 30" fill="none" xmlns="http://www.w3.org/2000/svg">
<g clip-path="url(#clip0_2893_1564)">
<path d="M6.86004 27.5C6.34539 27.4954 5.84471 27.3321 5.42635 27.0323C5.008 26.7325 4.69236 26.3109 4.52254 25.825L3.83504 23.925C3.80097 23.8466 3.73843 23.7841 3.66004 23.75C3.61869 23.7318 3.57399 23.7224 3.52879 23.7224C3.48359 23.7224 3.43889 23.7318 3.39754 23.75C2.52395 24.1428 1.58015 24.3553 0.622541 24.375C0.485149 24.3737 0.351283 24.4185 0.242461 24.5024C0.13364 24.5863 0.0561829 24.7043 0.022541 24.8375C-0.0138116 24.9683 -0.00664111 25.1073 0.0429694 25.2335C0.0925798 25.3598 0.181936 25.4665 0.297541 25.5375L2.93504 27.1125L1.93504 29.1C1.8858 29.1924 1.86004 29.2954 1.86004 29.4C1.86004 29.5047 1.8858 29.6077 1.93504 29.7C1.99514 29.7941 2.07846 29.8712 2.17699 29.9237C2.27551 29.9763 2.38591 30.0026 2.49754 30C3.09754 30 7.69754 30 8.59754 27.5C8.61607 27.4382 8.61649 27.3724 8.59877 27.3104C8.58105 27.2484 8.54592 27.1927 8.49754 27.15C8.44395 27.114 8.38085 27.0948 8.31629 27.0948C8.25173 27.0948 8.18863 27.114 8.13504 27.15C7.74915 27.379 7.30875 27.4999 6.86004 27.5ZM29.3725 24.375C28.4149 24.3553 27.4711 24.1428 26.5975 23.75C26.5562 23.7318 26.5115 23.7224 26.4663 23.7224C26.4211 23.7224 26.3764 23.7318 26.335 23.75C26.2567 23.7841 26.1941 23.8466 26.16 23.925L25.4725 25.825C25.3104 26.2916 25.0138 26.6996 24.62 26.9977C24.2263 27.2958 23.753 27.4706 23.26 27.5C22.7649 27.526 22.2733 27.4042 21.8475 27.15C21.7922 27.1184 21.7285 27.1044 21.665 27.1099C21.6015 27.1155 21.5412 27.1404 21.4922 27.1812C21.4433 27.222 21.4079 27.2768 21.391 27.3383C21.3741 27.3997 21.3764 27.4649 21.3975 27.525C22.2725 30.025 26.8975 30.025 27.4975 30.025C27.6049 30.0233 27.7103 29.9951 27.8041 29.9427C27.8979 29.8903 27.9772 29.8156 28.035 29.725C28.0843 29.6327 28.11 29.5297 28.11 29.425C28.11 29.3204 28.0843 29.2174 28.035 29.125L27.035 27.1375L29.6725 25.5625C29.7881 25.4915 29.8775 25.3848 29.9271 25.2585C29.9767 25.1322 29.9839 24.9933 29.9475 24.8625C29.9198 24.7288 29.8481 24.6082 29.7439 24.5199C29.6397 24.4315 29.509 24.3805 29.3725 24.375ZM22.56 25.275C22.6127 25.3793 22.6931 25.4671 22.7923 25.5288C22.8915 25.5906 23.0057 25.6238 23.1225 25.625C23.251 25.625 23.3763 25.5854 23.4814 25.5115C23.5865 25.4377 23.6664 25.3333 23.71 25.2125L25.86 19.3C26.0129 18.8804 26.0099 18.4198 25.8516 18.0022C25.6933 17.5846 25.3902 17.2378 24.9975 17.025C21.9414 15.3116 18.5011 14.3999 14.9975 14.375C11.4939 14.3999 8.05369 15.3116 4.99754 17.025C4.60938 17.2419 4.31159 17.5904 4.15799 18.0076C4.00439 18.4249 4.00512 18.8833 4.16004 19.3L6.24754 25.2125C6.28886 25.3275 6.36298 25.4279 6.46073 25.5012C6.55848 25.5745 6.67558 25.6176 6.79754 25.625C6.93501 25.6517 7.0774 25.6332 7.20353 25.5724C7.32966 25.5116 7.43278 25.4117 7.49754 25.2875C7.49754 25.15 9.24754 21.875 14.9975 21.875C20.7475 21.875 22.4975 25.15 22.56 25.275ZM7.14754 14.15C7.33414 14.0083 7.46933 13.8095 7.53251 13.5838C7.59569 13.3582 7.58341 13.1181 7.49754 12.9L6.91004 11.35C6.88666 11.2898 6.88251 11.2238 6.89818 11.1611C6.91385 11.0985 6.94856 11.0422 6.99754 11L8.24754 9.98754C8.42171 9.84283 8.54574 9.64682 8.60193 9.42746C8.65812 9.20811 8.64362 8.97661 8.56047 8.76599C8.47733 8.55536 8.32981 8.37637 8.13893 8.25454C7.94806 8.13271 7.72359 8.07426 7.49754 8.08754H6.09754C6.03316 8.08766 5.97045 8.06706 5.91868 8.02879C5.86691 7.99052 5.82882 7.93662 5.81004 7.87504L5.32254 6.37504C5.25747 6.15534 5.12311 5.96256 4.93952 5.82546C4.75592 5.68836 4.53293 5.61429 4.30379 5.61429C4.07466 5.61429 3.85166 5.68836 3.66807 5.82546C3.48447 5.96256 3.35012 6.15534 3.28504 6.37504L2.79754 7.87504C2.77641 7.93762 2.73599 7.99189 2.6821 8.03007C2.6282 8.06825 2.56359 8.08837 2.49754 8.08754H1.07254C0.857134 8.08527 0.645905 8.14702 0.465645 8.26497C0.285385 8.38292 0.144216 8.55175 0.060041 8.75004C-0.0245049 8.96605 -0.0386 9.20326 0.0197705 9.42776C0.078141 9.65226 0.205989 9.85256 0.385041 10L1.63504 11.0125C1.68777 11.0518 1.72612 11.1074 1.74419 11.1706C1.76226 11.2339 1.75904 11.3013 1.73504 11.3625L1.11004 12.925C1.01981 13.1425 1.00527 13.3839 1.06874 13.6106C1.13221 13.8373 1.27002 14.0361 1.46004 14.175C1.64239 14.3053 1.86092 14.3754 2.08504 14.3754C2.30917 14.3754 2.52769 14.3053 2.71004 14.175L4.09754 13.1875C4.14878 13.1459 4.21278 13.1232 4.27879 13.1232C4.3448 13.1232 4.4088 13.1459 4.46004 13.1875L5.84754 14.175C6.03723 14.3134 6.267 14.3859 6.50175 14.3814C6.7365 14.3768 6.96332 14.2956 7.14754 14.15ZM11.835 6.56254C11.8847 6.60424 11.9208 6.65985 11.9386 6.72223C11.9565 6.7846 11.9552 6.85088 11.935 6.91254L11.135 9.03754C11.0492 9.27504 11.0413 9.53374 11.1125 9.77604C11.1837 10.0183 11.3302 10.2316 11.5309 10.385C11.7316 10.5383 11.976 10.6236 12.2285 10.6286C12.481 10.6335 12.7285 10.5578 12.935 10.4125L14.81 9.07504C14.8636 9.03903 14.9267 9.0198 14.9913 9.0198C15.0559 9.0198 15.119 9.03903 15.1725 9.07504L17.0475 10.4125C17.2492 10.5646 17.4949 10.6469 17.7475 10.6469C18.0001 10.6469 18.2459 10.5646 18.4475 10.4125C18.6446 10.2528 18.7884 10.037 18.8598 9.7936C18.9312 9.55024 18.927 9.29091 18.8475 9.05004L18.0475 6.92504C18.0222 6.8651 18.017 6.79855 18.0328 6.73542C18.0486 6.67228 18.0845 6.61599 18.135 6.57504L19.7975 5.18754C19.9805 5.03007 20.1111 4.82058 20.172 4.58699C20.2329 4.35339 20.2212 4.10679 20.1383 3.88005C20.0555 3.6533 19.9056 3.45719 19.7084 3.31783C19.5113 3.17848 19.2764 3.1025 19.035 3.10004H17.0725C17.0049 3.10004 16.9391 3.07811 16.885 3.03754C16.8309 2.99697 16.7915 2.93995 16.7725 2.87504L16.11 0.825038C16.0394 0.585322 15.8926 0.375133 15.6919 0.226277C15.4912 0.0774217 15.2474 -0.00199757 14.9975 3.81821e-05C14.7465 -0.000674774 14.5018 0.0790425 14.2994 0.227508C14.0969 0.375973 13.9473 0.585379 13.8725 0.825038L13.21 2.86254C13.1956 2.92753 13.159 2.98549 13.1066 3.02653C13.0542 3.06756 12.9891 3.08913 12.9225 3.08754H10.935C10.6914 3.08551 10.4532 3.15926 10.2533 3.29858C10.0534 3.43791 9.90182 3.63592 9.81944 3.86521C9.73707 4.09449 9.728 4.34372 9.7935 4.57839C9.859 4.81305 9.99582 5.02156 10.185 5.17504L11.835 6.56254ZM24.1225 14.175L25.51 13.1875C25.5613 13.1459 25.6253 13.1232 25.6913 13.1232C25.7573 13.1232 25.8213 13.1459 25.8725 13.1875L27.26 14.175C27.4424 14.3053 27.6609 14.3754 27.885 14.3754C28.1092 14.3754 28.3277 14.3053 28.51 14.175C28.7001 14.0361 28.8379 13.8373 28.9013 13.6106C28.9648 13.3839 28.9503 13.1425 28.86 12.925L28.2725 11.35C28.2492 11.2898 28.245 11.2238 28.2607 11.1611C28.2764 11.0985 28.3111 11.0422 28.36 11L29.61 9.98754C29.7794 9.84607 29.9011 9.6559 29.9586 9.44287C30.0162 9.22984 30.0068 9.00426 29.9317 8.79677C29.8566 8.58927 29.7195 8.4099 29.539 8.28302C29.3584 8.15614 29.1432 8.08789 28.9225 8.08754H27.4975C27.4315 8.08837 27.3669 8.06825 27.313 8.03007C27.2591 7.99189 27.2187 7.93762 27.1975 7.87504L26.71 6.37504C26.645 6.15534 26.5106 5.96256 26.327 5.82546C26.1434 5.68836 25.9204 5.61429 25.6913 5.61429C25.4622 5.61429 25.2392 5.68836 25.0556 5.82546C24.872 5.96256 24.7376 6.15534 24.6725 6.37504L24.185 7.87504C24.1663 7.93662 24.1282 7.99052 24.0764 8.02879C24.0246 8.06706 23.9619 8.08766 23.8975 8.08754H22.4975C22.2706 8.07641 22.0461 8.13745 21.856 8.26189C21.666 8.38633 21.5202 8.56778 21.4397 8.78019C21.3592 8.99261 21.348 9.22507 21.4078 9.44423C21.4676 9.66338 21.5953 9.85796 21.7725 10L23.0225 11.0125C23.0715 11.0547 23.1062 11.111 23.1219 11.1736C23.1376 11.2363 23.1334 11.3023 23.11 11.3625L22.4975 12.925C22.4192 13.1397 22.4114 13.3738 22.4751 13.5932C22.5389 13.8127 22.6709 14.0061 22.852 14.1455C23.0332 14.2848 23.254 14.3628 23.4824 14.3681C23.7109 14.3734 23.9351 14.3058 24.1225 14.175Z" fill="white" fill-opacity="0.7"/>
</g>
<defs>
<clipPath id="clip0_2893_1564">
<rect width="30" height="30" fill="white"/>
</clipPath>
</defs>
</svg>
