<svg width="40" height="33" viewBox="0 0 40 33" fill="none" xmlns="http://www.w3.org/2000/svg">
<mask id="path-1-outside-1_2919_993" maskUnits="userSpaceOnUse" x="0" y="0" width="40" height="33" fill="black">
<rect fill="white" width="40" height="33"/>
<path d="M17.5 2.1V10.7C17.5 16.1 16.2333 20.5 13.7 23.9C11.1 27.3667 7.26666 29.6333 2.2 30.7V24.2C4.46666 23.6667 6.26666 22.6667 7.6 21.2C8.93333 19.8 9.8 18.1 10.2 16.1L4.2 16.1V2.1H17.5ZM37.7 2.1V10.7C37.7 16.1 36.4333 20.5 33.9 23.9C31.3 27.3667 27.5 29.6333 22.5 30.7L22.5 24.2C24.7667 23.6667 26.5667 22.6667 27.9 21.2C29.2333 19.8 30.1 18.1 30.5 16.1H24.5L24.5 2.1L37.7 2.1Z"/>
</mask>
<path d="M17.5 2.1V10.7C17.5 16.1 16.2333 20.5 13.7 23.9C11.1 27.3667 7.26666 29.6333 2.2 30.7V24.2C4.46666 23.6667 6.26666 22.6667 7.6 21.2C8.93333 19.8 9.8 18.1 10.2 16.1L4.2 16.1V2.1H17.5ZM37.7 2.1V10.7C37.7 16.1 36.4333 20.5 33.9 23.9C31.3 27.3667 27.5 29.6333 22.5 30.7L22.5 24.2C24.7667 23.6667 26.5667 22.6667 27.9 21.2C29.2333 19.8 30.1 18.1 30.5 16.1H24.5L24.5 2.1L37.7 2.1Z" fill="white"/>
<path d="M17.5 2.1H19V0.600002H17.5V2.1ZM13.7 23.9L14.9 24.8L14.9028 24.7962L13.7 23.9ZM2.2 30.7H0.699997V32.5487L2.50901 32.1678L2.2 30.7ZM2.2 24.2L1.85644 22.7399L0.699997 23.012V24.2L2.2 24.2ZM7.6 21.2L6.51379 20.1655L6.50179 20.1781L6.49009 20.191L7.6 21.2ZM10.2 16.1L11.6709 16.3942L12.0297 14.6H10.2V16.1ZM4.2 16.1H2.7V17.6H4.2V16.1ZM4.2 2.1V0.600002H2.7V2.1H4.2ZM37.7 2.1H39.2V0.600002H37.7V2.1ZM33.9 23.9L35.1 24.8L35.1028 24.7962L33.9 23.9ZM22.5 30.7H21V32.5538L22.813 32.167L22.5 30.7ZM22.5 24.2L22.1564 22.7399L21 23.012V24.2H22.5ZM27.9 21.2L26.8138 20.1655L26.8018 20.1781L26.7901 20.191L27.9 21.2ZM30.5 16.1L31.9709 16.3942L32.3297 14.6H30.5V16.1ZM24.5 16.1H23V17.6H24.5V16.1ZM24.5 2.1V0.600002H23V2.1H24.5ZM17.5 2.1H16V10.7H17.5H19V2.1H17.5ZM17.5 10.7H16C16 15.8661 14.7904 19.9261 12.4972 23.0038L13.7 23.9L14.9028 24.7962C17.6763 21.074 19 16.3339 19 10.7H17.5ZM13.7 23.9L12.5 23C10.1592 26.1211 6.67453 28.2251 1.89098 29.2322L2.2 30.7L2.50901 32.1678C7.8588 31.0416 12.0408 28.6123 14.9 24.8L13.7 23.9ZM2.2 30.7H3.7V24.2H2.2L0.699997 24.2V30.7H2.2ZM2.2 24.2L2.54356 25.6601C5.05253 25.0698 7.13888 23.9371 8.70991 22.209L7.6 21.2L6.49009 20.191C5.39445 21.3962 3.8808 22.2636 1.85644 22.7399L2.2 24.2ZM7.6 21.2L8.68621 22.2345C10.2262 20.6175 11.2184 18.6563 11.6709 16.3942L10.2 16.1L8.72913 15.8058C8.38156 17.5437 7.64051 18.9825 6.51379 20.1655L7.6 21.2ZM10.2 16.1V14.6L4.2 14.6V16.1V17.6L10.2 17.6V16.1ZM4.2 16.1H5.7V2.1H4.2H2.7V16.1H4.2ZM4.2 2.1V3.6H17.5V2.1V0.600002H4.2V2.1ZM37.7 2.1H36.2V10.7H37.7H39.2V2.1H37.7ZM37.7 10.7H36.2C36.2 15.8661 34.9904 19.9261 32.6972 23.0038L33.9 23.9L35.1028 24.7962C37.8763 21.074 39.2 16.3339 39.2 10.7H37.7ZM33.9 23.9L32.7 23C30.3554 26.1261 26.8998 28.2276 22.187 29.233L22.5 30.7L22.813 32.167C28.1002 31.039 32.2446 28.6072 35.1 24.8L33.9 23.9ZM22.5 30.7H24L24 24.2H22.5H21L21 30.7H22.5ZM22.5 24.2L22.8436 25.6601C25.3525 25.0698 27.4389 23.9371 29.0099 22.209L27.9 21.2L26.7901 20.191C25.6945 21.3962 24.1808 22.2636 22.1564 22.7399L22.5 24.2ZM27.9 21.2L28.9862 22.2345C30.5262 20.6175 31.5184 18.6563 31.9709 16.3942L30.5 16.1L29.0291 15.8058C28.6816 17.5437 27.9405 18.9825 26.8138 20.1655L27.9 21.2ZM30.5 16.1V14.6H24.5V16.1V17.6H30.5V16.1ZM24.5 16.1H26L26 2.1H24.5H23L23 16.1H24.5ZM24.5 2.1V3.6L37.7 3.6V2.1V0.600002L24.5 0.600002V2.1Z" fill="black" fill-opacity="0.34" mask="url(#path-1-outside-1_2919_993)"/>
</svg>
