<svg width="109" height="20" viewBox="0 0 109 20" fill="none" xmlns="http://www.w3.org/2000/svg">
<g clip-path="url(#clip0_2917_1752)">
<path fill-rule="evenodd" clip-rule="evenodd" d="M9.57338 2.65814C9.63094 2.4756 9.7452 2.31617 9.89955 2.203C10.0539 2.08983 10.2403 2.02881 10.4317 2.02881C10.6231 2.02881 10.8095 2.08983 10.9639 2.203C11.1182 2.31617 11.2325 2.4756 11.29 2.65814L12.84 7.4248H17.84C18.0383 7.41731 18.2335 7.47492 18.3959 7.58883C18.5584 7.70275 18.679 7.8667 18.7395 8.05565C18.7999 8.24459 18.7969 8.44814 18.7308 8.63518C18.6647 8.82222 18.5391 8.98248 18.3734 9.09147L14.315 12.0331L15.865 16.8081C15.9263 16.99 15.9279 17.1867 15.8695 17.3696C15.811 17.5524 15.6957 17.7118 15.5402 17.8244C15.3848 17.937 15.1974 17.997 15.0055 17.9955C14.8136 17.9941 14.6271 17.9314 14.4734 17.8165L10.4067 14.8415L6.34838 17.7915C6.19464 17.9064 6.00818 17.9691 5.81625 17.9705C5.62432 17.972 5.43695 17.912 5.28152 17.7994C5.12609 17.6868 5.01074 17.5274 4.9523 17.3446C4.89387 17.1617 4.89541 16.965 4.95671 16.7831L6.50671 12.0081L2.44838 9.06647C2.28262 8.95748 2.15709 8.79722 2.09098 8.61018C2.02487 8.42314 2.02181 8.21959 2.08228 8.03065C2.14274 7.8417 2.2634 7.67775 2.42581 7.56383C2.58823 7.44992 2.78347 7.39231 2.98171 7.3998H7.98171L9.57338 2.65814Z" fill="#F0BB0D" stroke="#F0BB0D" stroke-linecap="round" stroke-linejoin="round"/>
<path fill-rule="evenodd" clip-rule="evenodd" d="M31.5734 2.65814C31.6309 2.4756 31.7452 2.31617 31.8996 2.203C32.0539 2.08983 32.2403 2.02881 32.4317 2.02881C32.6231 2.02881 32.8095 2.08983 32.9639 2.203C33.1182 2.31617 33.2325 2.4756 33.29 2.65814L34.84 7.4248H39.84C40.0383 7.41731 40.2335 7.47492 40.3959 7.58883C40.5584 7.70275 40.679 7.8667 40.7395 8.05565C40.7999 8.24459 40.7969 8.44814 40.7308 8.63518C40.6647 8.82222 40.5391 8.98248 40.3734 9.09147L36.315 12.0331L37.865 16.8081C37.9263 16.99 37.9279 17.1867 37.8695 17.3696C37.811 17.5524 37.6957 17.7118 37.5402 17.8244C37.3848 17.937 37.1974 17.997 37.0055 17.9955C36.8136 17.9941 36.6271 17.9314 36.4734 17.8165L32.4067 14.8415L28.3484 17.7915C28.1946 17.9064 28.0082 17.9691 27.8163 17.9705C27.6243 17.972 27.437 17.912 27.2815 17.7994C27.1261 17.6868 27.0107 17.5274 26.9523 17.3446C26.8939 17.1617 26.8954 16.965 26.9567 16.7831L28.5067 12.0081L24.4484 9.06647C24.2826 8.95748 24.1571 8.79722 24.091 8.61018C24.0249 8.42314 24.0218 8.21959 24.0823 8.03065C24.1427 7.8417 24.2634 7.67775 24.4258 7.56383C24.5882 7.44992 24.7835 7.39231 24.9817 7.3998H29.9817L31.5734 2.65814Z" fill="#F0BB0D" stroke="#F0BB0D" stroke-linecap="round" stroke-linejoin="round"/>
<path fill-rule="evenodd" clip-rule="evenodd" d="M53.5734 2.65814C53.6309 2.4756 53.7452 2.31617 53.8996 2.203C54.0539 2.08983 54.2403 2.02881 54.4317 2.02881C54.6231 2.02881 54.8095 2.08983 54.9639 2.203C55.1182 2.31617 55.2325 2.4756 55.29 2.65814L56.84 7.4248H61.84C62.0383 7.41731 62.2335 7.47492 62.3959 7.58883C62.5584 7.70275 62.679 7.8667 62.7395 8.05565C62.7999 8.24459 62.7969 8.44814 62.7308 8.63518C62.6647 8.82222 62.5391 8.98248 62.3734 9.09147L58.315 12.0331L59.865 16.8081C59.9263 16.99 59.9279 17.1867 59.8695 17.3696C59.811 17.5524 59.6957 17.7118 59.5402 17.8244C59.3848 17.937 59.1974 17.997 59.0055 17.9955C58.8136 17.9941 58.6271 17.9314 58.4734 17.8165L54.4067 14.8415L50.3484 17.7915C50.1946 17.9064 50.0082 17.9691 49.8163 17.9705C49.6243 17.972 49.437 17.912 49.2815 17.7994C49.1261 17.6868 49.0107 17.5274 48.9523 17.3446C48.8939 17.1617 48.8954 16.965 48.9567 16.7831L50.5067 12.0081L46.4484 9.06647C46.2826 8.95748 46.1571 8.79722 46.091 8.61018C46.0249 8.42314 46.0218 8.21959 46.0823 8.03065C46.1427 7.8417 46.2634 7.67775 46.4258 7.56383C46.5882 7.44992 46.7835 7.39231 46.9817 7.3998H51.9817L53.5734 2.65814Z" fill="#F0BB0D" stroke="#F0BB0D" stroke-linecap="round" stroke-linejoin="round"/>
<path fill-rule="evenodd" clip-rule="evenodd" d="M75.5734 2.65814C75.6309 2.4756 75.7452 2.31617 75.8996 2.203C76.0539 2.08983 76.2403 2.02881 76.4317 2.02881C76.6231 2.02881 76.8095 2.08983 76.9639 2.203C77.1182 2.31617 77.2325 2.4756 77.29 2.65814L78.84 7.4248H83.84C84.0383 7.41731 84.2335 7.47492 84.3959 7.58883C84.5584 7.70275 84.679 7.8667 84.7395 8.05565C84.7999 8.24459 84.7969 8.44814 84.7308 8.63518C84.6647 8.82222 84.5391 8.98248 84.3734 9.09147L80.315 12.0331L81.865 16.8081C81.9263 16.99 81.9279 17.1867 81.8695 17.3696C81.811 17.5524 81.6957 17.7118 81.5402 17.8244C81.3848 17.937 81.1974 17.997 81.0055 17.9955C80.8136 17.9941 80.6271 17.9314 80.4734 17.8165L76.4067 14.8415L72.3484 17.7915C72.1946 17.9064 72.0082 17.9691 71.8163 17.9705C71.6243 17.972 71.437 17.912 71.2815 17.7994C71.1261 17.6868 71.0107 17.5274 70.9523 17.3446C70.8939 17.1617 70.8954 16.965 70.9567 16.7831L72.5067 12.0081L68.4484 9.06647C68.2826 8.95748 68.1571 8.79722 68.091 8.61018C68.0249 8.42314 68.0218 8.21959 68.0823 8.03065C68.1427 7.8417 68.2634 7.67775 68.4258 7.56383C68.5882 7.44992 68.7835 7.39231 68.9817 7.3998H73.9817L75.5734 2.65814Z" fill="#F0BB0D" stroke="#F0BB0D" stroke-linecap="round" stroke-linejoin="round"/>
<path fill-rule="evenodd" clip-rule="evenodd" d="M97.5734 2.65814C97.6309 2.4756 97.7452 2.31617 97.8996 2.203C98.0539 2.08983 98.2403 2.02881 98.4317 2.02881C98.6231 2.02881 98.8095 2.08983 98.9639 2.203C99.1182 2.31617 99.2325 2.4756 99.29 2.65814L100.84 7.4248H105.84C106.038 7.41731 106.234 7.47492 106.396 7.58883C106.558 7.70275 106.679 7.8667 106.739 8.05565C106.8 8.24459 106.797 8.44814 106.731 8.63518C106.665 8.82222 106.539 8.98248 106.373 9.09147L102.315 12.0331L103.865 16.8081C103.926 16.99 103.928 17.1867 103.869 17.3696C103.811 17.5524 103.696 17.7118 103.54 17.8244C103.385 17.937 103.197 17.997 103.006 17.9955C102.814 17.9941 102.627 17.9314 102.473 17.8165L98.4067 14.8415L94.3484 17.7915C94.1946 17.9064 94.0082 17.9691 93.8163 17.9705C93.6243 17.972 93.437 17.912 93.2815 17.7994C93.1261 17.6868 93.0107 17.5274 92.9523 17.3446C92.8939 17.1617 92.8954 16.965 92.9567 16.7831L94.5067 12.0081L90.4484 9.06647C90.2826 8.95748 90.1571 8.79722 90.091 8.61018C90.0249 8.42314 90.0218 8.21959 90.0823 8.03065C90.1427 7.8417 90.2634 7.67775 90.4258 7.56383C90.5882 7.44992 90.7835 7.39231 90.9817 7.3998H95.9817L97.5734 2.65814Z" stroke="#151515" stroke-width="1.5" stroke-linecap="round" stroke-linejoin="round"/>
</g>
<defs>
<clipPath id="clip0_2917_1752">
<rect width="108" height="20" fill="white" transform="translate(0.40625)"/>
</clipPath>
</defs>
</svg>
