<svg width="22" height="25" viewBox="0 0 22 25" fill="none" xmlns="http://www.w3.org/2000/svg">
<path d="M11 24C16.8333 24 21 21.8537 21 17.0765C21 11.8838 18.5 9.25291 13.5 6.65659L15.6633 3.14637C15.7482 2.97703 15.7903 2.78804 15.7854 2.59718C15.7806 2.40633 15.7291 2.21989 15.6357 2.05542C15.5424 1.89094 15.4102 1.75385 15.2518 1.65704C15.0933 1.56023 14.9138 1.50689 14.73 1.50203H7.66333C7.4673 1.49816 7.27393 1.54962 7.10385 1.65091C6.93376 1.7522 6.79333 1.89953 6.69753 2.07719C6.60173 2.25485 6.55416 2.45618 6.55987 2.65971C6.56559 2.86325 6.62439 3.06136 6.73 3.23291L8.5 6.65659C3.5 9.28753 1 11.9185 1 17.1111C1 21.8537 5.16667 24 11 24Z" stroke="black" stroke-width="2" stroke-linecap="round" stroke-linejoin="round"/>
<path d="M8.5 6.69128C8.77444 7.11863 9.14621 7.46901 9.58231 7.71135C10.0184 7.95369 10.5054 8.08048 11 8.08048C11.4946 8.08048 11.9816 7.95369 12.4177 7.71135C12.8538 7.46901 13.2256 7.11863 13.5 6.69128" stroke="black" stroke-width="2" stroke-linecap="round" stroke-linejoin="round"/>
</svg>
