<svg width="28" height="28" viewBox="0 0 28 28" fill="none" xmlns="http://www.w3.org/2000/svg">
<mask id="path-1-inside-1_2126_27895" fill="white">
<path d="M24.5 3.5H21.875V5.25L24.5 5.24913V22.75H21.875V24.5H24.5C25.4651 24.5 26.25 23.7151 26.25 22.75V5.25C26.25 4.28487 25.4651 3.5 24.5 3.5Z"/>
</mask>
<path d="M24.5 3.5H21.875V5.25L24.5 5.24913V22.75H21.875V24.5H24.5C25.4651 24.5 26.25 23.7151 26.25 22.75V5.25C26.25 4.28487 25.4651 3.5 24.5 3.5Z" fill="black"/>
<path d="M21.875 3.5V-2.5H15.875V3.5H21.875ZM21.875 5.25H15.875V11.252L21.877 11.25L21.875 5.25ZM24.5 5.24913H30.5V-0.752875L24.498 -0.750875L24.5 5.24913ZM24.5 22.75V28.75H30.5V22.75H24.5ZM21.875 22.75V16.75H15.875V22.75H21.875ZM21.875 24.5H15.875V30.5H21.875V24.5ZM24.5 3.5V-2.5H21.875V3.5V9.5H24.5V3.5ZM21.875 3.5H15.875V5.25H21.875H27.875V3.5H21.875ZM21.875 5.25L21.877 11.25L24.502 11.2491L24.5 5.24913L24.498 -0.750875L21.873 -0.75L21.875 5.25ZM24.5 5.24913H18.5V22.75H24.5H30.5V5.24913H24.5ZM24.5 22.75V16.75H21.875V22.75V28.75H24.5V22.75ZM21.875 22.75H15.875V24.5H21.875H27.875V22.75H21.875ZM21.875 24.5V30.5H24.5V24.5V18.5H21.875V24.5ZM24.5 24.5V30.5C28.7788 30.5 32.25 27.0288 32.25 22.75H26.25H20.25C20.25 20.4014 22.1514 18.5 24.5 18.5V24.5ZM26.25 22.75H32.25V5.25H26.25H20.25V22.75H26.25ZM26.25 5.25H32.25C32.25 0.971166 28.7788 -2.5 24.5 -2.5V3.5V9.5C22.1514 9.5 20.25 7.59858 20.25 5.25H26.25Z" fill="black" mask="url(#path-1-inside-1_2126_27895)"/>
<path d="M14 16.625C14.9665 16.625 15.75 15.8415 15.75 14.875C15.75 13.9085 14.9665 13.125 14 13.125C13.0335 13.125 12.25 13.9085 12.25 14.875C12.25 15.8415 13.0335 16.625 14 16.625Z" fill="black"/>
<mask id="path-4-inside-2_2126_27895" fill="white">
<path d="M19.25 3.5V24.5C19.25 25.4651 18.4651 26.25 17.5 26.25H3.5C2.53487 26.25 1.75 25.4651 1.75 24.5V3.5C1.75 2.53487 2.53487 1.75 3.5 1.75H17.5C18.4651 1.75 19.25 2.53487 19.25 3.5ZM3.5 24.5H17.5V3.49913L3.5 3.5V24.5Z"/>
</mask>
<path d="M19.25 3.5V24.5C19.25 25.4651 18.4651 26.25 17.5 26.25H3.5C2.53487 26.25 1.75 25.4651 1.75 24.5V3.5C1.75 2.53487 2.53487 1.75 3.5 1.75H17.5C18.4651 1.75 19.25 2.53487 19.25 3.5ZM3.5 24.5H17.5V3.49913L3.5 3.5V24.5Z" fill="black"/>
<path d="M3.5 24.5H-2.5V30.5H3.5V24.5ZM17.5 24.5V30.5H23.5V24.5H17.5ZM17.5 3.49913H23.5V-2.50125L17.4996 -2.50087L17.5 3.49913ZM3.5 3.5L3.49963 -2.5L-2.5 -2.49963L-2.5 3.5H3.5ZM19.25 3.5H13.25V24.5H19.25H25.25V3.5H19.25ZM19.25 24.5H13.25C13.25 22.1514 15.1514 20.25 17.5 20.25V26.25V32.25C21.7788 32.25 25.25 28.7788 25.25 24.5H19.25ZM17.5 26.25V20.25H3.5V26.25V32.25H17.5V26.25ZM3.5 26.25V20.25C5.84858 20.25 7.75 22.1514 7.75 24.5H1.75H-4.25C-4.25 28.7788 -0.778834 32.25 3.5 32.25V26.25ZM1.75 24.5H7.75V3.5H1.75H-4.25V24.5H1.75ZM1.75 3.5H7.75C7.75 5.84858 5.84858 7.75 3.5 7.75V1.75V-4.25C-0.778834 -4.25 -4.25 -0.778834 -4.25 3.5H1.75ZM3.5 1.75V7.75H17.5V1.75V-4.25H3.5V1.75ZM17.5 1.75V7.75C15.1514 7.75 13.25 5.84858 13.25 3.5H19.25H25.25C25.25 -0.778834 21.7788 -4.25 17.5 -4.25V1.75ZM3.5 24.5V30.5H17.5V24.5V18.5H3.5V24.5ZM17.5 24.5H23.5V3.49913H17.5H11.5V24.5H17.5ZM17.5 3.49913L17.4996 -2.50087L3.49963 -2.5L3.5 3.5L3.50037 9.5L17.5004 9.49913L17.5 3.49913ZM3.5 3.5H-2.5V24.5H3.5H9.5V3.5H3.5Z" fill="black" mask="url(#path-4-inside-2_2126_27895)"/>
</svg>
