<svg width="22" height="28" viewBox="0 0 22 28" fill="none" xmlns="http://www.w3.org/2000/svg">
<path d="M8.64 4.625H6C3.6425 4.625 2.465 4.625 1.7325 5.3575C1 6.09 1 7.2675 1 9.625V19C1 22.535 1 24.3038 2.09875 25.4013C3.19625 26.5 4.965 26.5 8.5 26.5H13.5C17.035 26.5 18.8038 26.5 19.9013 25.4013C21 24.3038 21 22.535 21 19V15.805C21 12.7988 21 11.295 20.2537 10.0863C19.5062 8.87875 18.1613 8.20625 15.4725 6.86125L13.1113 5.68125C12.0613 5.15625 11.535 4.8925 10.9688 4.75875C10.4025 4.625 9.815 4.625 8.6375 4.625" stroke="black" stroke-width="1.5" stroke-linecap="round" stroke-linejoin="round"/>
<path d="M11.625 9L16.625 11.5M3.5 4.625V3.6875C3.5 2.81 3.5 2.37125 3.71125 2.055C3.80223 1.91902 3.91902 1.80223 4.055 1.71125C4.37125 1.5 4.81 1.5 5.6875 1.5C6.565 1.5 7.00375 1.5 7.32 1.71125C7.45597 1.80223 7.57277 1.91902 7.66375 2.055C7.875 2.37125 7.875 2.81 7.875 3.6875V4.625M11 21.5C12.3813 21.5 13.5 20.45 13.5 19.1562C13.5 17.5938 11 15.25 11 15.25C11 15.25 8.5 17.5938 8.5 19.1562C8.5 20.45 9.61875 21.5 11 21.5Z" stroke="black" stroke-width="1.5" stroke-linecap="round" stroke-linejoin="round"/>
</svg>
