<svg width="22" height="22" viewBox="0 0 22 22" fill="none" xmlns="http://www.w3.org/2000/svg">
<g clip-path="url(#clip0_2085_363)">
<path d="M1.375 2.75C1.375 2.02065 1.66473 1.32118 2.18046 0.805456C2.69618 0.289731 3.39565 0 4.125 0L12.375 0C13.1043 0 13.8038 0.289731 14.3195 0.805456C14.8353 1.32118 15.125 2.02065 15.125 2.75V13.75C15.8543 13.75 16.5538 14.0397 17.0695 14.5555C17.5853 15.0712 17.875 15.7707 17.875 16.5V17.1875C17.875 17.3698 17.9474 17.5447 18.0764 17.6736C18.2053 17.8026 18.3802 17.875 18.5625 17.875C18.7448 17.875 18.9197 17.8026 19.0486 17.6736C19.1776 17.5447 19.25 17.3698 19.25 17.1875V11H18.5625C18.3802 11 18.2053 10.9276 18.0764 10.7986C17.9474 10.6697 17.875 10.4948 17.875 10.3125V6.01562C17.875 5.83329 17.9474 5.65842 18.0764 5.52949C18.2053 5.40056 18.3802 5.32812 18.5625 5.32812H20.6181C20.603 4.67362 20.5452 4.09888 20.3417 3.64788C20.2328 3.38564 20.043 3.16502 19.8 3.01812C19.547 2.86687 19.162 2.75 18.5625 2.75C18.3802 2.75 18.2053 2.67757 18.0764 2.54864C17.9474 2.4197 17.875 2.24484 17.875 2.0625C17.875 1.88016 17.9474 1.7053 18.0764 1.57636C18.2053 1.44743 18.3802 1.375 18.5625 1.375C19.338 1.37317 19.9852 1.52717 20.504 1.837C21.0306 2.1505 21.3757 2.59462 21.5958 3.08413C22.0014 3.98475 22 5.0985 22 5.9455V10.3125C22 10.4948 21.9276 10.6697 21.7986 10.7986C21.6697 10.9276 21.4948 11 21.3125 11H20.625V17.1875C20.625 17.7345 20.4077 18.2591 20.0209 18.6459C19.6341 19.0327 19.1095 19.25 18.5625 19.25C18.0155 19.25 17.4909 19.0327 17.1041 18.6459C16.7173 18.2591 16.5 17.7345 16.5 17.1875V16.5C16.5 16.1353 16.3551 15.7856 16.0973 15.5277C15.8394 15.2699 15.4897 15.125 15.125 15.125V20.625H15.8125C15.9948 20.625 16.1697 20.6974 16.2986 20.8264C16.4276 20.9553 16.5 21.1302 16.5 21.3125C16.5 21.4948 16.4276 21.6697 16.2986 21.7986C16.1697 21.9276 15.9948 22 15.8125 22H0.6875C0.505164 22 0.330295 21.9276 0.201364 21.7986C0.0724328 21.6697 0 21.4948 0 21.3125C0 21.1302 0.0724328 20.9553 0.201364 20.8264C0.330295 20.6974 0.505164 20.625 0.6875 20.625H1.375V2.75ZM4.8125 2.75C4.63016 2.75 4.4553 2.82243 4.32636 2.95136C4.19743 3.0803 4.125 3.25516 4.125 3.4375V10.3125C4.125 10.4948 4.19743 10.6697 4.32636 10.7986C4.4553 10.9276 4.63016 11 4.8125 11H11.6875C11.8698 11 12.0447 10.9276 12.1736 10.7986C12.3026 10.6697 12.375 10.4948 12.375 10.3125V3.4375C12.375 3.25516 12.3026 3.0803 12.1736 2.95136C12.0447 2.82243 11.8698 2.75 11.6875 2.75H4.8125Z" fill="black"/>
</g>
<defs>
<clipPath id="clip0_2085_363">
<rect width="22" height="22" fill="white"/>
</clipPath>
</defs>
</svg>
