<svg width="26" height="22" viewBox="0 0 26 22" fill="none" xmlns="http://www.w3.org/2000/svg">
<path d="M4.25 6C3.58696 6 2.95107 5.73661 2.48223 5.26777C2.01339 4.79893 1.75 4.16304 1.75 3.5C1.75 2.83696 2.01339 2.20107 2.48223 1.73223C2.95107 1.26339 3.58696 1 4.25 1C4.91304 1 5.54893 1.26339 6.01777 1.73223C6.48661 2.20107 6.75 2.83696 6.75 3.5C6.75 4.16304 6.48661 4.79893 6.01777 5.26777C5.54893 5.73661 4.91304 6 4.25 6ZM4.25 6V16M13 6C12.337 6 11.7011 5.73661 11.2322 5.26777C10.7634 4.79893 10.5 4.16304 10.5 3.5C10.5 2.83696 10.7634 2.20107 11.2322 1.73223C11.7011 1.26339 12.337 1 13 1C13.663 1 14.2989 1.26339 14.7678 1.73223C15.2366 2.20107 15.5 2.83696 15.5 3.5C15.5 4.16304 15.2366 4.79893 14.7678 5.26777C14.2989 5.73661 13.663 6 13 6ZM13 6V16M4.25 16C4.91304 16 5.54893 16.2634 6.01777 16.7322C6.48661 17.2011 6.75 17.837 6.75 18.5C6.75 19.163 6.48661 19.7989 6.01777 20.2678C5.54893 20.7366 4.91304 21 4.25 21C3.58696 21 2.95107 20.7366 2.48223 20.2678C2.01339 19.7989 1.75 19.163 1.75 18.5C1.75 17.837 2.01339 17.2011 2.48223 16.7322C2.95107 16.2634 3.58696 16 4.25 16ZM13 16C13.663 16 14.2989 16.2634 14.7678 16.7322C15.2366 17.2011 15.5 17.837 15.5 18.5C15.5 19.163 15.2366 19.7989 14.7678 20.2678C14.2989 20.7366 13.663 21 13 21C12.337 21 11.7011 20.7366 11.2322 20.2678C10.7634 19.7989 10.5 19.163 10.5 18.5C10.5 17.837 10.7634 17.2011 11.2322 16.7322C11.7011 16.2634 12.337 16 13 16ZM19.25 3.5C19.25 4.16304 19.5134 4.79893 19.9822 5.26777C20.4511 5.73661 21.087 6 21.75 6C22.413 6 23.0489 5.73661 23.5178 5.26777C23.9866 4.79893 24.25 4.16304 24.25 3.5C24.25 2.83696 23.9866 2.20107 23.5178 1.73223C23.0489 1.26339 22.413 1 21.75 1C21.087 1 20.4511 1.26339 19.9822 1.73223C19.5134 2.20107 19.25 2.83696 19.25 3.5Z" stroke="black" stroke-width="2" stroke-linecap="round" stroke-linejoin="round"/>
<path d="M21.75 6V8.5C21.75 9.16304 21.4866 9.79893 21.0178 10.2678C20.5489 10.7366 19.913 11 19.25 11H4.25" stroke="black" stroke-width="2" stroke-linecap="round" stroke-linejoin="round"/>
</svg>
