<svg width="22" height="29" viewBox="0 0 22 29" fill="none" xmlns="http://www.w3.org/2000/svg">
<path d="M1 11.3H13.3077M1 16.7H13.3077M13.3077 23.9H17.9231C18.7391 23.9 19.5218 23.5207 20.0988 22.8456C20.6758 22.1705 21 21.2548 21 20.3C21 19.3452 20.6758 18.4295 20.0988 17.7544C19.5218 17.0793 18.7391 16.7 17.9231 16.7C17.5151 16.7 17.1237 16.5104 16.8352 16.1728C16.5467 15.8352 16.3846 15.3774 16.3846 14.9V10.4L21 5M1 9.5V25.7C1 26.1774 1.16209 26.6352 1.4506 26.9728C1.73912 27.3104 2.13044 27.5 2.53846 27.5H11.7692C12.1773 27.5 12.5686 27.3104 12.8571 26.9728C13.1456 26.6352 13.3077 26.1774 13.3077 25.7V9.5C13.3077 8.54522 12.9835 7.62955 12.4065 6.95442C11.8294 6.27928 11.0468 5.9 10.2308 5.9H4.07692C3.26087 5.9 2.47824 6.27928 1.90121 6.95442C1.32417 7.62955 1 8.54522 1 9.5Z" stroke="black" stroke-width="2" stroke-linecap="round" stroke-linejoin="round"/>
<path d="M12.3845 8.10005L15.4614 7.20005V1.80005M5.46143 16.2V18" stroke="black" stroke-width="2" stroke-linecap="round" stroke-linejoin="round"/>
</svg>
