<svg width="30" height="30" viewBox="0 0 30 30" fill="none" xmlns="http://www.w3.org/2000/svg">
<path d="M15 5C8.1075 5 2.5 10.6075 2.5 17.5C2.49884 19.4292 2.94873 21.3319 3.81375 23.0562C4.02625 23.4812 4.45875 23.75 4.9325 23.75H25.0663C25.54 23.75 25.9738 23.4812 26.1863 23.0562C27.0513 21.3319 27.5012 19.4292 27.5 17.5C27.5 10.6075 21.8925 5 15 5ZM21.2775 11.2775L16.325 18.825C16.1872 19.0354 16.0093 19.2166 15.8014 19.3581C15.5935 19.4997 15.3597 19.5989 15.1135 19.65C14.8672 19.701 14.6133 19.7031 14.3662 19.6559C14.1192 19.6087 13.8839 19.5132 13.6738 19.375C13.4078 19.2011 13.1895 18.9637 13.0383 18.6843C12.8871 18.4048 12.808 18.0921 12.808 17.7744C12.808 17.4567 12.8871 17.1439 13.0383 16.8645C13.1895 16.585 13.4078 16.3476 13.6738 16.1737L21.2213 11.2213C21.2304 11.2156 21.2414 11.2137 21.2519 11.2161C21.2624 11.2184 21.2716 11.2247 21.2775 11.2338C21.2821 11.2401 21.2845 11.2478 21.2845 11.2556C21.2845 11.2635 21.2821 11.2711 21.2775 11.2775Z" fill="black"/>
</svg>
