<svg width="26" height="20" viewBox="0 0 26 20" fill="none" xmlns="http://www.w3.org/2000/svg">
<path d="M17.1125 7.8625L13.6375 11.3375C13.4297 11.281 13.2154 11.2516 13 11.25C12.337 11.25 11.7011 11.5134 11.2323 11.9822C10.7634 12.4511 10.5 13.087 10.5 13.75C10.5016 13.9654 10.531 14.1797 10.5875 14.3875L9.61255 15.3625C9.49539 15.4787 9.4024 15.617 9.33893 15.7693C9.27547 15.9216 9.2428 16.085 9.2428 16.25C9.2428 16.415 9.27547 16.5784 9.33893 16.7307C9.4024 16.883 9.49539 17.0213 9.61255 17.1375C9.72875 17.2547 9.867 17.3477 10.0193 17.4111C10.1717 17.4746 10.335 17.5072 10.5 17.5072C10.6651 17.5072 10.8284 17.4746 10.9808 17.4111C11.1331 17.3477 11.2713 17.2547 11.3875 17.1375L12.3625 16.1625C12.5704 16.219 12.7847 16.2484 13 16.25C13.6631 16.25 14.299 15.9866 14.7678 15.5178C15.2367 15.0489 15.5 14.413 15.5 13.75C15.4985 13.5346 15.4691 13.3203 15.4125 13.1125L18.8875 9.6375C19.1229 9.40212 19.2552 9.08288 19.2552 8.75C19.2552 8.41712 19.1229 8.09788 18.8875 7.8625C18.6522 7.62712 18.3329 7.49489 18 7.49489C17.6672 7.49489 17.3479 7.62712 17.1125 7.8625ZM13 0C11.3585 0 9.73307 0.323322 8.2165 0.951506C6.69994 1.57969 5.32195 2.50043 4.16121 3.66117C1.81701 6.00537 0.500048 9.18479 0.500048 12.5C0.493125 14.9758 1.229 17.3968 2.61255 19.45C2.7982 19.7252 3.08556 19.9153 3.4114 19.9786C3.73724 20.0419 4.07489 19.9732 4.35005 19.7875C4.62521 19.6018 4.81535 19.3145 4.87865 18.9886C4.94194 18.6628 4.8732 18.3252 4.68755 18.05C3.68069 16.5444 3.10165 14.7937 3.01224 12.9846C2.92283 11.1756 3.32642 9.37631 4.1799 7.77879C5.03339 6.18127 6.30473 4.84554 7.85817 3.91423C9.41162 2.98293 11.1888 2.49101 13 2.49101C14.8113 2.49101 16.5885 2.98293 18.1419 3.91423C19.6954 4.84554 20.9667 6.18127 21.8202 7.77879C22.6737 9.37631 23.0773 11.1756 22.9879 12.9846C22.8984 14.7937 22.3194 16.5444 21.3125 18.05C21.2204 18.1862 21.1561 18.3392 21.1232 18.5003C21.0903 18.6614 21.0895 18.8274 21.1208 18.9888C21.1522 19.1502 21.215 19.3038 21.3059 19.4409C21.3967 19.5779 21.5136 19.6957 21.65 19.7875C21.857 19.9266 22.1007 20.0006 22.35 20C22.5548 20.0003 22.7565 19.9503 22.9374 19.8544C23.1183 19.7585 23.2729 19.6196 23.3875 19.45C24.7711 17.3968 25.507 14.9758 25.5 12.5C25.5 9.18479 24.1831 6.00537 21.8389 3.66117C19.4947 1.31696 16.3153 0 13 0Z" fill="black"/>
</svg>
