<svg width="29" height="22" viewBox="0 0 29 22" fill="none" xmlns="http://www.w3.org/2000/svg">
<path d="M22.3217 7.69913L22.0421 7.59354L19.691 2.91247C19.2494 2.03277 18.591 1.29708 17.7861 0.784077C16.9812 0.271074 16.0602 5.31465e-05 15.1214 4.58218e-09H9.20129C8.11415 -4.71101e-05 7.05456 0.363237 6.17269 1.03837C5.29082 1.7135 4.63139 2.66624 4.28786 3.76157L3.16721 7.33177C2.22835 7.75201 1.42707 8.45702 0.863699 9.35854C0.300326 10.2601 -0.000111145 11.318 3.08442e-08 12.4V14.8483C3.08442e-08 16.4101 0.876214 17.752 2.13357 18.3569C2.2964 19.3476 2.77394 20.2492 3.48665 20.9115C4.19937 21.5737 5.10422 21.9567 6.05051 21.9965C6.99679 22.0364 7.92737 21.7308 8.68725 21.1306C9.44712 20.5304 9.99042 19.6718 10.2266 18.6979H18.7734C19.0096 19.6718 19.5529 20.5304 20.3128 21.1306C21.0726 21.7308 22.0032 22.0364 22.9495 21.9965C23.8958 21.9567 24.8006 21.5737 25.5133 20.9115C26.2261 20.2492 26.7036 19.3476 26.8664 18.3569C27.5023 18.0521 28.0418 17.559 28.4202 16.9366C28.7987 16.3143 29 15.5892 29 14.8483V14.1026C28.9998 12.9674 28.6689 11.86 28.0525 10.9325C27.4361 10.0049 26.5645 9.30272 25.5573 8.92219L22.4294 7.74092V7.69913H22.3217ZM9.20129 2.19975H11.3929V7.69913H5.2345L6.25157 4.4567C6.45778 3.79921 6.85369 3.22736 7.38314 2.82226C7.9126 2.41715 8.54872 2.19935 9.20129 2.19975ZM13.4643 2.19975H15.1214C15.6847 2.19954 16.2375 2.36194 16.7206 2.66959C17.2036 2.97724 17.5989 3.41857 17.864 3.94635L19.749 7.69913H13.4643V2.19975ZM21.9634 9.89888L24.8634 10.9944C25.4676 11.2227 25.9905 11.6441 26.3602 12.2006C26.73 12.7571 26.9285 13.4215 26.9286 14.1026V14.8483C26.9286 15.2333 26.8043 15.5874 26.5971 15.869C26.2578 15.0233 25.6776 14.3116 24.9379 13.8341C24.1982 13.3565 23.3362 13.1371 22.473 13.2065C21.6098 13.2759 20.7887 13.6307 20.1252 14.2211C19.4616 14.8115 18.9889 15.6078 18.7734 16.4981H10.2266C10.0111 15.6078 9.53839 14.8115 8.87483 14.2211C8.21128 13.6307 7.39023 13.2759 6.52703 13.2065C5.66383 13.1371 4.80183 13.3565 4.06213 13.8341C3.32242 14.3116 2.74216 15.0233 2.40286 15.869C2.18771 15.5779 2.07098 15.2184 2.07143 14.8483V12.4C2.07143 11.4101 2.48571 10.5082 3.14857 9.89888H21.9634ZM4.14286 17.598C4.14286 17.0146 4.3611 16.4551 4.74956 16.0426C5.13803 15.63 5.66491 15.3983 6.21429 15.3983C6.76366 15.3983 7.29054 15.63 7.67901 16.0426C8.06747 16.4551 8.28571 17.0146 8.28571 17.598C8.28571 18.1814 8.06747 18.7409 7.67901 19.1535C7.29054 19.566 6.76366 19.7978 6.21429 19.7978C5.66491 19.7978 5.13803 19.566 4.74956 19.1535C4.3611 18.7409 4.14286 18.1814 4.14286 17.598ZM22.7857 15.3983C23.3351 15.3983 23.862 15.63 24.2504 16.0426C24.6389 16.4551 24.8571 17.0146 24.8571 17.598C24.8571 18.1814 24.6389 18.7409 24.2504 19.1535C23.862 19.566 23.3351 19.7978 22.7857 19.7978C22.2363 19.7978 21.7095 19.566 21.321 19.1535C20.9325 18.7409 20.7143 18.1814 20.7143 17.598C20.7143 17.0146 20.9325 16.4551 21.321 16.0426C21.7095 15.63 22.2363 15.3983 22.7857 15.3983Z" fill="black"/>
</svg>
