<svg width="25" height="28" viewBox="0 0 25 28" fill="none" xmlns="http://www.w3.org/2000/svg">
<path d="M19.5 19.625L23.25 1.5C23.25 1.5 16.6875 2.75 16.6875 5.25C16.6875 6.8125 19.1875 7.75 18.25 8.6875C17.3125 9.625 13.875 10.5625 13.875 13.0625C13.875 14.625 14.9 15.7875 13.875 16.8125C12.9375 17.75 12 17.2587 10.4375 16.8125C8.6875 16.3125 5.125 15.875 3.875 16.1875C2.625 16.5 1.375 17.125 1.375 19C1.375 20.0312 2 21.1875 3.5625 21.5C5.125 21.8125 7 20.25 9.5 20.25C12 20.25 15.125 22.125 17 22.125C18.875 22.125 19.5 19.625 19.5 19.625Z" stroke="black" stroke-width="2" stroke-linejoin="round"/>
<path d="M3.875 21.5L2 26.5H22.625L18.875 21.5" stroke="black" stroke-width="2" stroke-linejoin="round"/>
</svg>
