<svg width="17" height="17" viewBox="0 0 17 17" fill="none" xmlns="http://www.w3.org/2000/svg">
<g clip-path="url(#clip0_3809_4827)">
<path d="M13.919 2.50658C13.1723 1.75991 12.3101 1.18213 11.3323 0.773245C10.3545 0.364356 9.33229 0.159912 8.26562 0.159912C7.19896 0.159912 6.17674 0.364356 5.19896 0.773245C4.22118 1.18213 3.35896 1.75991 2.61229 2.50658C1.86563 3.25325 1.28785 4.11547 0.878958 5.09325C0.470069 6.07102 0.265625 7.09325 0.265625 8.15991C0.265625 9.22658 0.470069 10.2488 0.878958 11.2266C1.28785 12.2044 1.86563 13.0666 2.61229 13.8132C3.35896 14.5599 4.22118 15.1377 5.19896 15.5466C6.17674 15.9555 7.19896 16.1599 8.26562 16.1599C9.33229 16.1599 10.3545 15.9555 11.3323 15.5466C12.3101 15.1377 13.1723 14.5599 13.919 13.8132C14.6656 13.0666 15.2434 12.2044 15.6523 11.2266C16.0612 10.2488 16.2656 9.22658 16.2656 8.15991C16.2656 7.09325 16.0612 6.07102 15.6523 5.09325C15.2434 4.11547 14.6656 3.25325 13.919 2.50658ZM3.73229 13.5999C3.83896 12.8532 4.10563 12.1688 4.53229 11.5466C4.95896 10.9244 5.50118 10.4355 6.15896 10.0799C6.81674 9.72436 7.51896 9.54658 8.26562 9.54658C8.87007 9.54658 9.44785 9.66213 9.99896 9.89325C10.5501 10.1244 11.039 10.4532 11.4656 10.8799C12.2123 11.6266 12.6567 12.5332 12.799 13.5999C12.159 14.0977 11.4567 14.4888 10.6923 14.7732C9.92785 15.0577 9.11896 15.1999 8.26562 15.1999C7.41229 15.1999 6.6034 15.0577 5.83896 14.7732C5.07451 14.4888 4.37229 14.0977 3.73229 13.5999ZM8.26562 8.58658C7.59007 8.58658 7.01229 8.34658 6.53229 7.86658C6.05229 7.38658 5.81229 6.81769 5.81229 6.15991C5.81229 5.50213 6.05229 4.93324 6.53229 4.45325C7.01229 3.97325 7.59007 3.73324 8.26562 3.73324C8.94118 3.73324 9.51896 3.97325 9.99896 4.45325C10.479 4.93324 10.719 5.50213 10.719 6.15991C10.719 6.81769 10.479 7.38658 9.99896 7.86658C9.51896 8.34658 8.94118 8.58658 8.26562 8.58658ZM13.599 12.7999C13.3501 11.8044 12.8701 10.951 12.159 10.2399C11.5901 9.63547 10.9145 9.2088 10.1323 8.95991C10.5945 8.63991 10.959 8.23102 11.2256 7.73324C11.4923 7.23547 11.6256 6.69324 11.6256 6.10658C11.6256 5.51991 11.4745 4.9688 11.1723 4.45325C10.8701 3.93769 10.4612 3.5288 9.94563 3.22658C9.43007 2.92436 8.87007 2.77324 8.26562 2.77324C7.66118 2.77324 7.10118 2.92436 6.58563 3.22658C6.07007 3.5288 5.66118 3.93769 5.35896 4.45325C5.05674 4.9688 4.90563 5.51991 4.90563 6.10658C4.90563 6.69324 5.03896 7.23547 5.30562 7.73324C5.57229 8.23102 5.93674 8.63991 6.39896 8.95991C5.68785 9.2088 5.06563 9.58213 4.53229 10.0799C3.71451 10.8266 3.18118 11.7332 2.93229 12.7999C2.39896 12.1599 1.98118 11.4399 1.67896 10.6399C1.37674 9.83991 1.22563 9.01325 1.22563 8.15991C1.22563 6.87991 1.53674 5.69769 2.15896 4.61325C2.78118 3.5288 3.63451 2.67547 4.71896 2.05325C5.8034 1.43102 6.98563 1.11991 8.26562 1.11991C9.54563 1.11991 10.7278 1.43102 11.8123 2.05325C12.8967 2.67547 13.7501 3.5288 14.3723 4.61325C14.9945 5.69769 15.3056 6.87991 15.3056 8.15991C15.3056 9.01325 15.1545 9.83991 14.8523 10.6399C14.5501 11.4399 14.1323 12.1599 13.599 12.7999Z" fill="#6D757F"/>
</g>
<defs>
<clipPath id="clip0_3809_4827">
<rect width="16.53" height="16" fill="white" transform="matrix(1 0 0 -1 0 16.1599)"/>
</clipPath>
</defs>
</svg>
