<svg width="361" height="106" viewBox="0 0 361 106" fill="none" xmlns="http://www.w3.org/2000/svg">
<g clip-path="url(#clip0_3283_1126)">
<g clip-path="url(#clip1_3283_1126)">
<path fill-rule="evenodd" clip-rule="evenodd" d="M297.697 64.5746C296.108 66.0617 296.564 65.8902 292.874 64.8036C289.639 63.7737 291.172 63.4306 288.279 65.0893C285.667 66.6344 281.411 68.1796 279.424 69.3804C280.163 71.0403 286.518 76.4755 288.051 78.7068C287.482 78.9925 287.029 79.222 286.405 79.5084C285.44 79.9656 285.667 79.9656 284.532 79.2794C282.035 77.8484 274.033 73.2716 272.444 72.5842C270.345 73.4999 264.782 76.3613 262.854 76.2465C261.945 76.1898 260.469 75.9608 260.756 74.8161C261.492 72.0128 266.486 70.467 269.722 69.0366C271.025 68.4652 270.685 68.5227 270.969 67.091C271.311 65.5465 273.467 54.3318 273.978 53.7604C274.205 53.5889 275.964 52.8453 276.303 52.6732C276.474 53.7037 276.587 54.8477 276.644 55.9344L277.211 62.2853C277.211 63.3152 277.382 64.5166 277.553 65.4891C279.028 64.7455 280.503 64.1161 282.036 63.3726C289.639 59.7102 288.279 62.1711 290.036 58.0515C291.06 55.7628 291.06 54.3892 293.272 54.7336C292.874 59.3104 294.121 62.1718 297.697 64.5746ZM233.117 20.2319C235.161 20.8619 234.705 20.9187 237.543 18.2875C240.041 15.9982 238.508 16.3419 241.857 16.6282C244.806 16.8565 249.347 16.4567 251.674 16.685C251.73 18.4591 248.27 26.1262 247.815 28.8141C248.44 28.8141 248.95 28.8141 249.63 28.8141C250.71 28.8141 250.483 28.9295 251.276 27.8429C252.922 25.4387 258.143 17.829 259.335 16.5708C261.663 16.5141 267.849 16.6282 269.551 15.7699C270.345 15.3127 271.594 14.3969 270.855 13.4812C268.982 11.3066 263.818 12.0508 260.3 12.1656C258.882 12.1656 259.222 12.1082 258.312 10.9642C257.348 9.70528 250.653 0.493683 249.97 0.207351C249.687 0.150601 247.758 0.207351 247.417 0.207351C247.644 1.23724 248.043 2.26778 248.44 3.29702L250.653 9.30419C251.05 10.22 251.447 11.4207 251.73 12.3371C250.086 12.2797 248.44 12.3371 246.737 12.3371C238.338 12.3371 240.665 13.9964 237.259 11.0216C235.388 9.36158 234.82 8.16015 232.946 9.41898C235.218 13.3664 235.33 16.5134 233.117 20.2319ZM232.209 14.3969C233.061 14.2828 233.344 15.5983 232.378 15.7699L231.018 15.9414C230.165 16.1136 229.825 14.74 230.789 14.5685L232.209 14.3969ZM111.674 105.942C111.219 106.857 109.97 106.17 110.368 105.37L110.709 104.625C111.163 103.768 112.411 104.454 111.958 105.255L111.674 105.942ZM113.83 101.421C113.376 102.279 112.127 101.65 112.581 100.792L113.206 99.5332C113.602 98.6745 114.852 99.3601 114.454 100.161L113.83 101.421ZM116.383 96.3865C115.987 97.1868 114.681 96.6154 115.135 95.7564L115.815 94.4982C116.213 93.6973 117.461 94.2693 117.065 95.185L116.383 96.3865ZM119.108 91.466C118.597 92.3243 117.405 91.5227 117.859 90.7791L118.597 89.5203C119.108 88.662 120.243 89.4636 119.788 90.2071L119.108 91.466ZM121.944 86.6022C121.435 87.4038 120.243 86.6602 120.753 85.8593L121.491 84.6578C121.944 83.8562 123.193 84.6011 122.683 85.4008L121.944 86.6022ZM124.952 81.7965C124.499 82.54 123.249 81.8532 123.76 81.0522L124.555 79.8508C125.008 79.1086 126.257 79.7941 125.69 80.6531L124.952 81.7965ZM128.073 77.1623C127.507 77.9052 126.427 77.0481 126.939 76.3039L127.733 75.1605C128.301 74.4163 129.435 75.2747 128.868 76.0189L128.073 77.1623ZM131.365 72.5842C130.798 73.3284 129.721 72.47 130.287 71.7271L131.139 70.5831C131.705 69.8389 132.783 70.7546 132.216 71.4408L131.365 72.5842ZM134.657 68.2937C134.146 68.58 133.522 68.1215 133.579 67.5502C133.522 67.2064 133.805 66.7492 134.203 66.6918L134.657 66.1191C135.225 65.433 136.359 66.292 135.734 67.0342L135.621 67.2064L135.848 67.2632C136.756 67.6075 136.189 68.9231 135.338 68.58L134.657 68.2937ZM138.459 63.8304C137.778 64.5172 136.813 63.5447 137.438 62.8573L138.346 61.8274C139.026 61.0838 139.991 62.1144 139.368 62.7425L138.459 63.8304ZM142.261 59.6541C141.637 60.3409 140.559 59.3678 141.239 58.681L142.204 57.6511C142.829 56.9656 143.849 57.9381 143.225 58.6236L142.261 59.6541ZM146.177 55.6493C145.438 56.2781 144.531 55.1908 145.212 54.6194L146.177 53.6463C146.915 52.9595 147.823 54.0461 147.198 54.6762L146.177 55.6493ZM150.262 51.7587C149.581 52.3875 148.616 51.3582 149.297 50.7288L150.376 49.7563C151.057 49.1269 152.022 50.2135 151.284 50.843L150.262 51.7587ZM154.462 48.0957C153.837 48.6684 152.873 47.6385 153.61 47.0097L154.689 46.094C155.484 45.4639 156.279 46.666 155.54 47.1813L154.462 48.0957ZM158.889 44.5488C158.094 45.1215 157.3 43.9774 158.038 43.4622L159.116 42.6038C159.911 42.0324 160.705 43.1765 159.968 43.6911L158.889 44.5488ZM163.371 41.2302C162.691 41.7455 161.782 40.6588 162.577 40.0862C162.975 39.8005 163.371 39.5135 163.769 39.2846C164.45 38.7706 165.358 39.8572 164.563 40.4292C164.166 40.7162 163.769 40.9445 163.371 41.2302ZM168.025 38.0838C167.231 38.599 166.549 37.3396 167.288 36.8823L168.479 36.1381C169.274 35.6242 170.012 36.8823 169.217 37.3396L168.025 38.0838ZM172.792 35.1656C172.055 35.6242 171.26 34.4227 172.112 33.9068L173.36 33.2213C174.097 32.7628 174.892 33.9642 174.041 34.4795L172.792 35.1656ZM177.73 32.4197C176.821 32.8769 176.255 31.5613 177.049 31.1609L178.297 30.4741C179.149 30.0736 179.773 31.3892 178.978 31.7896L177.73 32.4197ZM182.724 29.9027C181.928 30.3025 181.248 29.0437 182.099 28.5858C182.553 28.4143 182.95 28.1853 183.404 28.0138C184.198 27.6127 184.823 28.8715 183.972 29.2726C183.574 29.5009 183.121 29.6731 182.724 29.9027ZM187.83 27.5559C186.923 27.9003 186.469 26.5834 187.263 26.2397L188.568 25.6683C189.476 25.324 189.929 26.6969 189.079 26.9839L187.83 27.5559ZM192.995 25.4387C192.143 25.7825 191.633 24.4662 192.484 24.1225L193.846 23.6085C194.64 23.2648 195.208 24.5804 194.3 24.9248L192.995 25.4387ZM198.272 23.4944C197.421 23.7794 196.911 22.4632 197.819 22.1775C198.272 22.006 198.726 21.8345 199.18 21.7203C199.975 21.3772 200.485 22.6928 199.578 23.0365C199.124 23.2074 198.727 23.3216 198.272 23.4944ZM203.607 21.7777C202.642 22.006 202.358 20.6337 203.21 20.4047L204.571 20.003C205.48 19.7747 205.821 21.147 204.914 21.3772L203.607 21.7777ZM208.998 20.2319C208.091 20.4615 207.75 19.0885 208.657 18.8596L210.019 18.5158C210.87 18.2875 211.267 19.6605 210.359 19.8888L208.998 20.2319ZM214.447 18.9163C213.593 19.1446 213.141 17.7723 214.106 17.4866L215.524 17.2009C216.49 17.0281 216.659 18.4591 215.807 18.5732L214.447 18.9163ZM219.893 17.7149C218.986 17.8864 218.759 16.5135 219.667 16.3419L221.029 16.1136C221.993 15.9414 222.22 17.315 221.313 17.4866L219.893 17.7149ZM225.455 16.7424C224.548 16.9139 224.263 15.541 225.229 15.3694L226.592 15.1411C227.5 14.9696 227.783 16.3999 226.818 16.5715L225.455 16.7424ZM36.4807 72.127C34.8913 73.6147 35.346 73.4425 31.6566 72.2985C28.4213 71.326 29.9533 70.9262 27.0602 72.6429C24.4492 74.13 20.1924 75.7319 18.207 76.934C18.9445 78.5926 25.3005 84.0278 26.8325 86.2591C26.2645 86.5448 25.811 86.7176 25.1867 87.0033C24.2215 87.5179 24.4492 87.5179 23.3138 86.8318C20.8167 85.4008 12.8148 80.7666 11.226 80.1372C9.1267 81.0523 3.56506 83.9136 1.63528 83.7995C0.727 83.7421 -0.74928 83.4564 -0.464002 82.3111C0.272859 79.5077 5.26714 77.9626 8.50114 76.5329C9.8066 75.9615 9.46635 76.075 9.7497 74.6446C10.0919 73.0433 12.2475 61.8854 12.7586 61.3134C12.9287 61.1425 14.744 60.3409 15.0843 60.2268C15.2557 61.2567 15.3696 62.344 15.4258 63.4306L15.9926 69.8389C15.9926 70.8114 16.1627 72.0702 16.3348 72.9853C17.8098 72.2985 19.2848 71.6117 20.8167 70.9255C28.4213 67.2625 27.0033 69.7241 28.8179 65.6045C29.84 63.3164 29.7825 61.9435 32.0532 62.2859C31.6572 66.8627 32.9052 69.7241 36.4807 72.127ZM34.835 66.4629C33.9836 66.7486 34.3245 68.0641 35.2885 67.8352L36.5946 67.378C37.3884 67.149 37.105 65.7754 36.1405 66.0044L34.835 66.4629ZM182.667 97.2435C183.404 97.8742 184.199 96.7296 183.517 96.1575L182.95 95.699C182.155 95.069 181.361 96.2149 182.043 96.7863L182.667 97.2435ZM178.751 94.0984C179.489 94.6698 180.339 93.5831 179.659 93.0105L178.525 92.0954C177.786 91.5227 176.935 92.6667 177.673 93.2394L178.751 94.0984ZM174.325 90.6644C175.005 91.237 175.913 90.1504 175.175 89.5203L174.041 88.662C173.303 88.148 172.396 89.2346 173.19 89.8073L174.325 90.6644ZM169.784 87.3457C170.579 87.9191 171.317 86.6602 170.579 86.2024L169.388 85.4008C168.592 84.8294 167.856 86.0876 168.592 86.5448L169.784 87.3457ZM165.131 84.1993C165.926 84.7146 166.663 83.5132 165.926 82.9979L164.735 82.2537C163.94 81.7397 163.145 82.8837 163.94 83.399L165.131 84.1993ZM160.422 81.1664C161.159 81.6249 161.954 80.4809 161.102 79.9656L159.911 79.222C159.173 78.7642 158.379 79.9082 159.173 80.4241L160.422 81.1664ZM155.54 78.3069C156.449 78.7642 157.016 77.506 156.279 77.0481L155.029 76.3613C154.179 75.9028 153.555 77.1623 154.349 77.6201L155.54 78.3069ZM150.66 75.6171C151.51 76.0182 152.079 74.7581 151.284 74.3589L150.036 73.6721C149.184 73.2716 148.56 74.5305 149.412 74.9316L150.66 75.6171ZM145.61 73.0994C146.46 73.4999 147.085 72.2411 146.233 71.7839L144.985 71.2112C144.19 70.8107 143.51 72.0128 144.36 72.47L145.61 73.0994ZM140.559 70.754C141.466 71.0971 141.92 69.7815 141.069 69.4371L139.763 68.8657C138.912 68.5226 138.402 69.8382 139.253 70.1813L140.559 70.754ZM130.116 66.6344C131.082 66.9201 131.365 65.5471 130.571 65.3188L129.209 64.8603C128.244 64.5746 127.961 65.9476 128.755 66.1759L130.116 66.6344ZM124.783 64.9171C125.634 65.2034 126.031 63.8304 125.179 63.5447L123.817 63.1443C122.909 62.9147 122.512 64.2889 123.42 64.5172L124.783 64.9171ZM119.391 63.4306C120.185 63.6595 120.697 62.344 119.731 62.0576L118.37 61.7132C117.348 61.485 117.178 62.9147 118.03 63.0862L119.391 63.4306ZM113.943 62.115C114.852 62.2866 115.078 60.9123 114.227 60.7407L112.809 60.4551C111.9 60.2835 111.616 61.6565 112.524 61.828L113.943 62.115ZM108.439 61.0845C109.289 61.2567 109.63 59.883 108.666 59.6541C108.211 59.5967 107.7 59.4826 107.246 59.4258C106.396 59.2543 106.055 60.6266 107.02 60.8555C107.474 60.9123 107.985 60.9703 108.439 61.0845ZM102.876 60.2261C103.841 60.3403 103.955 58.9105 103.047 58.8531L101.685 58.681C100.721 58.5668 100.607 59.9978 101.515 60.0546L102.876 60.2261ZM97.3153 59.6541C98.2235 59.7109 98.3943 58.3379 97.4291 58.2237L96.0104 58.1096C95.1597 57.9954 94.9326 59.4258 95.9541 59.5393L97.3153 59.6541ZM91.7543 59.2536C92.7195 59.3104 92.6619 57.8807 91.8112 57.8807L90.3912 57.8233C89.4279 57.7665 89.4279 59.1962 90.3356 59.1962L91.7543 59.2536ZM86.1357 59.1388C87.0434 59.1388 87.1003 57.7091 86.1357 57.7091C85.6822 57.7091 85.1718 57.7091 84.717 57.7091C83.865 57.7091 83.7524 59.1388 84.717 59.1388C85.2281 59.1388 85.6822 59.1388 86.1357 59.1388ZM80.5171 59.2536C81.5393 59.1388 81.3691 57.7665 80.4615 57.8233L79.0997 57.8807C78.1345 57.9374 78.2484 59.3678 79.1566 59.3104L80.5171 59.2536ZM74.9561 59.5393C75.8638 59.4826 75.7506 58.0522 74.8429 58.1096L73.4236 58.2237C72.5166 58.2805 72.6304 59.7109 73.5381 59.6541L74.9561 59.5393ZM69.3958 60.0546C70.2459 59.9978 70.1896 58.5662 69.2244 58.681C68.7709 58.7384 68.2604 58.7951 67.8063 58.8531C66.9543 58.9105 67.0119 60.3409 67.9764 60.2261C68.4306 60.1694 68.8841 60.112 69.3958 60.0546ZM63.8329 60.7981C64.7974 60.6266 64.4578 59.2536 63.6064 59.4258L62.1877 59.5967C61.2801 59.8263 61.5634 61.1993 62.4142 61.0284L63.8329 60.7981ZM58.2719 61.7706C59.1802 61.5997 58.9537 60.1694 58.0454 60.3409L56.6274 60.6266C55.7754 60.7981 56.0018 62.1718 56.9107 62.0002L58.2719 61.7706ZM52.8241 62.8573C53.6755 62.7431 53.4497 61.3128 52.4844 61.485L51.122 61.828C50.1568 62.0576 50.6116 63.4306 51.4629 63.2017L52.8241 62.8573ZM47.3763 64.2315C48.2846 63.9446 47.8867 62.5722 46.9797 62.8579L45.6167 63.2023C44.709 63.4306 45.1069 64.8036 46.0152 64.5753L47.3763 64.2315ZM41.9292 65.7187C42.8368 65.4897 42.4959 64.0587 41.5307 64.3457L40.2252 64.7462C39.3738 64.9751 39.6585 66.3481 40.6237 66.1191L41.9292 65.7187ZM296.051 58.9105C295.201 59.1969 295.541 60.5118 296.505 60.2835L297.811 59.8263C298.604 59.5967 298.379 58.2237 297.357 58.5094L296.051 58.9105ZM443.884 89.7499C444.621 90.3219 445.473 89.1772 444.734 88.662L444.168 88.148C443.374 87.5179 442.579 88.7194 443.26 89.2353L443.884 89.7499ZM439.968 86.6022C440.707 87.1748 441.557 86.0302 440.878 85.4588L439.742 84.6004C439.004 84.0278 438.152 85.1144 438.891 85.6871L439.968 86.6022ZM435.542 83.1127C436.222 83.6847 437.131 82.5981 436.392 82.0254L435.258 81.167C434.521 80.5957 433.612 81.683 434.407 82.3117L435.542 83.1127ZM431.001 79.8508C431.795 80.3667 432.535 79.1653 431.795 78.65L430.662 77.8484C429.809 77.3344 429.073 78.5359 429.867 79.0511L431.001 79.8508ZM426.349 76.647C427.142 77.1623 427.88 75.9615 427.142 75.4456L425.953 74.702C425.157 74.1874 424.419 75.3888 425.157 75.9028L426.349 76.647ZM421.637 73.6147C422.376 74.1293 423.17 72.9853 422.376 72.4133L421.127 71.6697C420.446 71.2119 419.596 72.3559 420.446 72.9286L421.637 73.6147ZM416.814 70.754C417.667 71.2112 418.233 69.9524 417.496 69.5525L416.246 68.8083C415.396 68.4085 414.771 69.6667 415.566 70.0672L416.814 70.754ZM411.878 68.0641C412.728 68.4653 413.354 67.2625 412.502 66.8053L411.254 66.1759C410.402 65.7187 409.836 67.0342 410.629 67.436L411.878 68.0641ZM406.825 65.5471C407.678 65.9476 408.302 64.6888 407.451 64.2889L406.201 63.6589C405.408 63.2584 404.727 64.5172 405.577 64.9171L406.825 65.5471ZM401.776 63.2017C402.685 63.5447 403.139 62.2285 402.287 61.8848L401.039 61.3128C400.13 60.9703 399.619 62.3433 400.471 62.629L401.776 63.2017ZM396.556 61.0845C397.406 61.4276 397.973 60.112 397.066 59.7109L395.76 59.2536C394.91 58.9105 394.399 60.2261 395.25 60.5692L396.556 61.0845ZM391.334 59.1388C392.299 59.4252 392.583 57.9948 391.787 57.7665L390.426 57.308C389.46 57.0223 389.177 58.3946 389.973 58.681L391.334 59.1388ZM386 57.3647C386.908 57.6504 387.248 56.2781 386.397 56.0492L385.034 55.6487C384.127 55.3617 383.73 56.7353 384.638 56.9643L386 57.3647ZM380.608 55.8783C381.404 56.1066 381.914 54.791 380.948 54.504L379.588 54.1616C378.565 53.9333 378.395 55.363 379.247 55.5352L380.608 55.8783ZM375.162 54.6201C376.069 54.791 376.294 53.36 375.444 53.1884L374.024 52.9027C373.117 52.7312 372.889 54.1042 373.798 54.2751L375.162 54.6201ZM369.656 53.5328C370.506 53.7043 370.849 52.3301 369.882 52.1592C369.429 52.0444 368.975 51.9876 368.463 51.8728C367.669 51.7587 367.273 53.1317 368.236 53.3032C368.749 53.36 369.202 53.4754 369.656 53.5328ZM364.093 52.6738C365.061 52.7879 365.173 51.415 364.264 51.3015L362.904 51.1286C361.938 51.0145 361.823 52.4455 362.733 52.5029L364.093 52.6738ZM358.533 52.1011C359.44 52.2159 359.61 50.7862 358.647 50.6714L357.228 50.5573C356.378 50.4999 356.15 51.8729 357.171 51.987L358.533 52.1011ZM352.971 51.7587C353.937 51.7587 353.88 50.3283 353.028 50.3283L351.608 50.2703C350.645 50.2703 350.645 51.6439 351.552 51.702L352.971 51.7587ZM347.352 51.5872C348.261 51.5872 348.319 50.2135 347.352 50.1561C346.899 50.1561 346.388 50.1561 345.935 50.1561C345.082 50.1561 344.97 51.5872 345.935 51.5872C346.445 51.5872 346.899 51.5872 347.352 51.5872ZM341.736 51.7013C342.757 51.6439 342.586 50.2129 341.679 50.2696L340.316 50.3277C339.352 50.3851 339.466 51.8148 340.373 51.7581L341.736 51.7013ZM336.173 51.987C337.083 51.9302 337.026 50.4999 336.06 50.614L334.639 50.7282C333.732 50.7856 333.846 52.1585 334.754 52.1005L336.173 51.987ZM330.613 52.5597C331.463 52.4455 331.407 51.0145 330.442 51.1286C329.987 51.186 329.478 51.2434 329.024 51.3015C328.171 51.3582 328.228 52.7886 329.195 52.6738C329.648 52.617 330.101 52.5597 330.613 52.5597ZM325.051 53.2458C326.015 53.0743 325.675 51.7013 324.825 51.8728L323.406 52.1011C322.499 52.2727 322.781 53.6469 323.632 53.4754L325.051 53.2458ZM319.488 54.2183C320.398 54.0468 320.17 52.6738 319.262 52.846L317.845 53.0743C316.992 53.2458 317.219 54.6768 318.128 54.504L319.488 54.2183ZM314.042 55.363C314.893 55.1915 314.666 53.7611 313.702 53.99L312.339 54.2757C311.376 54.5627 311.829 55.8783 312.68 55.65L314.042 55.363ZM308.593 56.6779C309.502 56.3929 309.103 55.0773 308.253 55.3056L306.834 55.6493C305.926 55.935 306.323 57.2506 307.232 57.0223L308.593 56.6779ZM303.203 58.1663C304.053 57.9381 303.713 56.5638 302.804 56.794L301.443 57.1938C300.591 57.4228 300.876 58.8531 301.84 58.5668L303.203 58.1663Z" fill="#737373"/>
</g>
</g>
<defs>
<clipPath id="clip0_3283_1126">
<rect width="445" height="106" fill="white"/>
</clipPath>
<clipPath id="clip1_3283_1126">
<rect width="446" height="107" fill="white" transform="translate(-0.5 -0.5)"/>
</clipPath>
</defs>
</svg>
