<svg width="19" height="16" viewBox="0 0 19 16" fill="none" xmlns="http://www.w3.org/2000/svg">
<path d="M8.11241 15.7655C8.10995 15.7655 8.10708 15.7655 8.10462 15.7655C8.0029 15.7634 7.90693 15.72 7.83802 15.6453L0.805484 7.99834C0.684894 7.86709 0.673824 7.66939 0.779234 7.52543C0.884644 7.38187 1.07659 7.33265 1.23819 7.40812L7.67478 10.422C7.72892 10.4474 7.7929 10.4351 7.83433 10.392L17.6526 0.130307C17.7855 -0.00873348 18.0029 -0.0239135 18.1538 0.0958565C18.3048 0.215616 18.3396 0.430537 18.2342 0.591737L8.46761 15.5534C8.45366 15.5752 8.43726 15.5949 8.41921 15.6133L8.37614 15.6564C8.30601 15.7261 8.21085 15.7655 8.11241 15.7655Z" fill="#34D674"/>
</svg>
