<svg width="13" height="12" viewBox="0 0 13 12" fill="none" xmlns="http://www.w3.org/2000/svg">
<path d="M12.1477 4.58597C12.0725 4.35354 11.8664 4.18846 11.6225 4.16648L8.30952 3.86566L6.99948 0.799381C6.90289 0.574662 6.6829 0.429199 6.43847 0.429199C6.19405 0.429199 5.97406 0.574662 5.87747 0.799906L4.56743 3.86566L1.25392 4.16648C1.01046 4.18899 0.804834 4.35354 0.729256 4.58597C0.653678 4.81839 0.723476 5.07332 0.907647 5.23403L3.41187 7.43024L2.67343 10.6831C2.6194 10.9222 2.71223 11.1695 2.91067 11.3129C3.01734 11.39 3.14214 11.4292 3.26798 11.4292C3.37649 11.4292 3.48412 11.3999 3.58071 11.3421L6.43847 9.63417L9.29519 11.3421C9.50423 11.4679 9.76774 11.4564 9.96575 11.3129C10.1643 11.169 10.257 10.9217 10.203 10.6831L9.46456 7.43024L11.9688 5.23446C12.1529 5.07332 12.2232 4.81883 12.1477 4.58597Z" fill="#FFC700"/>
</svg>
