<svg width="17" height="17" viewBox="0 0 17 17" fill="none" xmlns="http://www.w3.org/2000/svg">
<g clip-path="url(#clip0_2157_29363)">
<path d="M8.49984 1.41675V3.18758M8.49984 1.41675C4.58782 1.41675 1.4165 4.58806 1.4165 8.50008M8.49984 1.41675C12.4119 1.41675 15.5832 4.58806 15.5832 8.50008M8.49984 13.8126V15.5834M8.49984 15.5834C12.4119 15.5834 15.5832 12.4121 15.5832 8.50008M8.49984 15.5834C4.58782 15.5834 1.4165 12.4121 1.4165 8.50008M3.18734 8.50008H1.4165M15.5832 8.50008H13.8123M13.5137 13.514L12.2573 12.2576M3.48599 13.514L4.74365 12.2563M3.48599 3.54175L4.71598 4.77173M13.5137 3.54175L9.56227 7.43758M9.9165 8.50008C9.9165 9.28249 9.28224 9.91675 8.49984 9.91675C7.71743 9.91675 7.08317 9.28249 7.08317 8.50008C7.08317 7.71768 7.71743 7.08342 8.49984 7.08342C9.28224 7.08342 9.9165 7.71768 9.9165 8.50008Z" stroke="black" stroke-opacity="0.2" stroke-width="1.5" stroke-linecap="round" stroke-linejoin="round"/>
</g>
<defs>
<clipPath id="clip0_2157_29363">
<rect width="17" height="17" fill="white"/>
</clipPath>
</defs>
</svg>
