<svg width="17" height="17" viewBox="0 0 17 17" fill="none" xmlns="http://www.w3.org/2000/svg">
<path d="M15.5832 14.875V13.4583C15.5832 12.1381 14.6802 11.0288 13.4582 10.7143M10.979 2.33095C12.0174 2.75127 12.7498 3.76926 12.7498 4.95833C12.7498 6.1474 12.0174 7.1654 10.979 7.58571M12.0415 14.875C12.0415 13.5548 12.0415 12.8947 11.8258 12.3741C11.5383 11.6798 10.9867 11.1282 10.2924 10.8407C9.77176 10.625 9.11167 10.625 7.7915 10.625H5.6665C4.34634 10.625 3.68625 10.625 3.16557 10.8407C2.47132 11.1282 1.91974 11.6798 1.63218 12.3741C1.4165 12.8947 1.4165 13.5548 1.4165 14.875M9.56234 4.95833C9.56234 6.52314 8.29381 7.79167 6.729 7.79167C5.1642 7.79167 3.89567 6.52314 3.89567 4.95833C3.89567 3.39353 5.1642 2.125 6.729 2.125C8.29381 2.125 9.56234 3.39353 9.56234 4.95833Z" stroke="black" stroke-opacity="0.2" stroke-width="1.5" stroke-linecap="round" stroke-linejoin="round"/>
</svg>
