<svg width="17" height="17" viewBox="0 0 17 17" fill="none" xmlns="http://www.w3.org/2000/svg">
<path d="M9.9165 7.79167H10.6248C11.4072 7.79167 12.0415 8.42593 12.0415 9.20833V11.3333C12.0415 11.9201 12.5172 12.3958 13.104 12.3958C13.6908 12.3958 14.1665 11.9201 14.1665 11.3333V6.375L12.0415 4.25" stroke="black" stroke-opacity="0.2" stroke-width="1.75" stroke-linecap="round" stroke-linejoin="round"/>
<path d="M2.8335 14.1666V4.24992C2.8335 3.46752 3.46776 2.83325 4.25016 2.83325H8.50016C9.28257 2.83325 9.91683 3.46752 9.91683 4.24992V14.1666" stroke="black" stroke-opacity="0.2" stroke-width="1.75" stroke-linecap="round" stroke-linejoin="round"/>
<path d="M2.125 14.1667H10.625" stroke="black" stroke-opacity="0.2" stroke-width="1.75" stroke-linecap="round" stroke-linejoin="round"/>
<path d="M12.75 4.95825V5.66659C12.75 6.05779 13.0671 6.37492 13.4583 6.37492H14.1667" stroke="black" stroke-opacity="0.2" stroke-width="1.75" stroke-linecap="round" stroke-linejoin="round"/>
<path d="M2.8335 7.79167H9.91683" stroke="black" stroke-opacity="0.2" stroke-width="1.75" stroke-linecap="round" stroke-linejoin="round"/>
</svg>
