<svg width="24" height="26" viewBox="0 0 24 26" fill="none" xmlns="http://www.w3.org/2000/svg">
<path d="M5.06017 7.96248C5.24951 6.25426 6.06221 4.67587 7.3427 3.52948C8.62318 2.38308 10.2815 1.74921 12.0002 1.74921C13.7189 1.74921 15.3772 2.38308 16.6576 3.52948C17.9381 4.67587 18.7508 6.25426 18.9402 7.96248L19.2552 10.795L19.2627 10.8662C19.4241 12.2713 19.8816 13.6261 20.6052 14.8412L20.6427 14.9037L21.3639 16.1075C22.0202 17.2 22.3477 17.7462 22.2764 18.195C22.2294 18.4928 22.0762 18.7637 21.8452 18.9575C21.4964 19.25 20.8589 19.25 19.5852 19.25H4.41517C3.14017 19.25 2.50267 19.25 2.15517 18.9587C1.92343 18.7648 1.76978 18.4935 1.72267 18.195C1.65267 17.7462 1.98017 17.2 2.63517 16.1075L3.35892 14.9025L3.39642 14.84C4.11937 13.6251 4.5765 12.2707 4.73767 10.8662L4.74517 10.795L5.06017 7.96248Z" stroke="black" stroke-width="3"/>
<path d="M7 19.25C7 20.5761 7.52678 21.8479 8.46447 22.7855C9.40215 23.7232 10.6739 24.25 12 24.25C13.3261 24.25 14.5979 23.7232 15.5355 22.7855C16.4732 21.8479 17 20.5761 17 19.25" stroke="black" stroke-width="3" stroke-linecap="round"/>
</svg>
