<svg width="23" height="24" viewBox="0 0 23 24" fill="none" xmlns="http://www.w3.org/2000/svg">
<path d="M16.8652 15.4778H15.7994L15.4217 15.0979C16.2648 14.0765 16.8809 12.8733 17.2261 11.5745C17.5713 10.2758 17.6369 8.91346 17.4183 7.58515C16.7842 3.674 13.6544 0.550711 9.87704 0.0723698C8.54905 -0.102836 7.20023 0.041097 5.93378 0.493154C4.66734 0.945211 3.51684 1.69341 2.57032 2.6805C1.6238 3.66759 0.906359 4.86741 0.472883 6.18814C0.0394077 7.50888 -0.0986088 8.91552 0.0693951 10.3004C0.528075 14.2397 3.52298 17.5037 7.27336 18.1649C8.54708 18.3929 9.85337 18.3245 11.0988 17.9645C12.3442 17.6046 13.4979 16.962 14.4773 16.0827L14.8416 16.4767V17.5881L20.5751 23.5674C21.1282 24.1442 22.0321 24.1442 22.5852 23.5674C23.1383 22.9906 23.1383 22.0479 22.5852 21.4711L16.8652 15.4778ZM8.77082 15.4778C5.41166 15.4778 2.70006 12.6499 2.70006 9.14679C2.70006 5.64364 5.41166 2.8158 8.77082 2.8158C12.13 2.8158 14.8416 5.64364 14.8416 9.14679C14.8416 12.6499 12.13 15.4778 8.77082 15.4778Z" fill="black"/>
</svg>
